<svg width="3736" height="3736" viewBox="0 0 3736 3736" fill="none" xmlns="http://www.w3.org/2000/svg">
<rect width="3736" height="3736" fill="white"/>
<g clip-path="url(#clip0_6042_7)">
<path d="M1867.56 2593.48C1728.81 2593.48 1617.29 2705.91 1617.29 2843.8C1617.29 2982.58 1729.69 3094.12 1867.56 3094.12C2005.43 3094.12 2117.83 2981.7 2117.83 2843.8C2117.83 2705.91 2005.43 2593.48 1867.56 2593.48ZM1867.56 2981.7C1792.04 2981.7 1730.57 2920.22 1730.57 2844.68C1730.57 2769.15 1792.04 2707.66 1867.56 2707.66C1943.08 2707.66 2004.55 2769.15 2004.55 2844.68C2004.55 2920.22 1943.08 2981.7 1867.56 2981.7Z" fill="#6D9CE9"/>
<path d="M2813.33 984.419C2674.58 984.419 2563.05 1096.84 2563.05 1234.74C2563.05 1372.63 2675.46 1485.06 2813.33 1485.06C2952.07 1485.06 3063.6 1372.63 3063.6 1234.74C3063.6 1096.84 2951.19 984.419 2813.33 984.419ZM2813.33 1371.75C2737.81 1371.75 2676.33 1310.27 2676.33 1234.74C2676.33 1159.2 2737.81 1097.72 2813.33 1097.72C2888.85 1097.72 2950.32 1159.2 2950.32 1234.74C2950.32 1310.27 2888.85 1371.75 2813.33 1371.75Z" fill="#6D9CE9"/>
<path d="M921.796 984.419C783.049 984.419 671.524 1096.84 671.524 1234.74C671.524 1373.51 783.927 1485.06 921.796 1485.06C1059.67 1485.06 1172.07 1372.63 1172.07 1234.74C1172.95 1096.84 1060.54 984.419 921.796 984.419ZM921.796 1371.75C846.275 1371.75 784.805 1310.27 784.805 1234.74C784.805 1159.2 846.275 1097.72 921.796 1097.72C997.317 1097.72 1058.79 1159.2 1058.79 1234.74C1058.79 1310.27 998.195 1371.75 921.796 1371.75Z" fill="#6D9CE9"/>
<path d="M3377.1 2165.75C3349 2117.44 3312.99 2068.25 3269.96 2020.83C3162.83 1904.01 3024.08 1823.21 2880.94 1793.34C2834.4 1783.68 2787.86 1778.41 2742.2 1778.41C2633.31 1778.41 2529.68 1806.52 2434.84 1861.85C2389.18 1887.32 2348.79 1918.06 2311.03 1954.07C2288.19 1975.15 2286.44 2011.16 2306.63 2034C2317.17 2046.3 2332.98 2052.45 2348.79 2052.45C2362.84 2052.45 2376.01 2047.18 2386.55 2037.51C2419.92 2006.77 2455.04 1980.42 2491.92 1960.22C2570.08 1914.55 2655.26 1890.84 2745.71 1890.84C2782.59 1890.84 2820.35 1895.23 2856.35 1903.13C2979.3 1930.36 3096.97 1999.75 3186.54 2097.24C3212.88 2127.1 3240.11 2159.6 3262.06 2195.61C3154.93 2365.12 2999.49 2453.83 2810.69 2453.83C2760.64 2453.83 2707.95 2447.69 2654.38 2435.39C2442.75 2387.08 2217.06 2250.07 2017.72 2048.93C1993.14 2023.46 1967.67 1996.23 1942.2 1967.25C2080.07 1790.71 2174.91 1604.51 2217.06 1427.97C2297.85 1093.33 2186.33 818.419 1904.44 653.296C1893.91 645.392 1881.61 641 1869.32 641C1859.66 641 1849.12 643.635 1841.22 648.905C1475.03 858.821 1465.37 1188.19 1521.57 1427.97C1563.72 1604.51 1658.56 1790.71 1796.43 1967.25C1770.96 1996.23 1746.38 2023.46 1720.91 2048.93C1525.08 2246.55 1293.25 2387.96 1086.01 2435.39C1031.56 2447.69 978.876 2453.83 928.821 2453.83C738.263 2453.83 585.465 2366.88 475.697 2195.61C497.651 2162.23 522.239 2129.74 551.218 2097.24C645.179 1997.99 759.339 1930.36 881.401 1903.13C918.283 1895.23 955.166 1890.84 992.048 1890.84C1082.5 1890.84 1167.68 1913.67 1245.83 1960.22C1282.71 1980.42 1317.84 2006.77 1351.21 2037.51C1361.75 2047.18 1374.92 2052.45 1388.97 2052.45C1404.78 2052.45 1420.58 2045.42 1431.12 2034C1441.66 2022.58 1446.93 2008.53 1446.93 1993.6C1446.93 1978.67 1440.78 1964.61 1429.37 1954.07C1388.09 1917.19 1346.82 1886.44 1303.79 1861.85C1208.95 1806.52 1105.33 1778.41 996.438 1778.41C950.775 1778.41 904.233 1783.68 857.691 1793.34C712.797 1823.21 575.806 1904.01 470.428 2020.83C431.79 2061.23 395.785 2108.66 360.66 2166.63C351.878 2187.71 351.878 2207.91 360.66 2224.59C491.504 2449.44 687.331 2568.01 926.187 2568.01C985.901 2568.01 1048.25 2560.99 1112.35 2546.06C1342.43 2492.48 1593.58 2339.65 1803.46 2127.98C1826.29 2105.14 1849.12 2080.55 1871.07 2055.96C1893.03 2080.55 1915.86 2105.14 1938.69 2127.98C2148.57 2339.65 2401.47 2491.6 2631.55 2546.06C2694.78 2560.11 2757.12 2568.01 2815.96 2568.01C3053.94 2568.01 3249.77 2449.44 3380.61 2224.59C3387.63 2205.27 3387.63 2184.19 3377.1 2165.75ZM1867.56 1877.66C1748.13 1720.44 1666.46 1556.2 1630.46 1401.62C1584.8 1209.27 1589.19 942.261 1867.56 763.963C2147.69 942.261 2152.08 1209.27 2106.42 1401.62C2069.53 1556.2 1986.99 1720.44 1867.56 1877.66Z" fill="#6D9CE9"/>
</g>
<defs>
<clipPath id="clip0_6042_7">
<rect width="3034" height="2454" fill="white" transform="translate(351 641)"/>
</clipPath>
</defs>
</svg>
