<?xml version="1.0" encoding="utf-8"?>
<!-- Generator: Adobe Illustrator 25.4.1, SVG Export Plug-In . SVG Version: 6.00 Build 0)  -->
<svg version="1.1" baseProfile="tiny" id="Capa_1" xmlns="http://www.w3.org/2000/svg" xmlns:xlink="http://www.w3.org/1999/xlink"
	 x="0px" y="0px" viewBox="0 0 600.2 430.4" overflow="visible" xml:space="preserve">
<path fill="#0253A4" d="M457.7,193.5c-2.7-4.4-4.9-8.7-6.7-13.2c-2.9-7-4.5-14.3-5.4-21.9c-1.2-9.7-0.4-19.3,1.5-28.8
	c2.6-13.1,7.8-25.3,14.7-36.7c1.8-3,4-5.7,5.9-8.6c0.7-1,1.3-1.2,2.4-0.6c10.6,5.7,20,12.8,28,21.8c6.6,7.4,11.9,15.5,16,24.4
	c2.5,5.5,4.2,11.2,5.4,17.1c0.2,1,0.4,2.1,0.6,3.1c0.2,1.3,0.6,1.9,2.1,1.6c2.1-0.4,4.2-0.5,6.3-0.8c9.8-1.3,19.7-1.4,29.5-0.4
	c10.6,1.1,21,3.4,30.6,8.4c4.1,2.1,7.5,5.1,11.1,7.9c0.7,0.5,0.8,1,0.3,1.7c-0.8,1.1-0.9,2.4-1.2,3.5c-2.5,8.2-7,15.3-12.3,21.9
	c-10.6,13.2-24.2,22-40.3,27.1c-8.6,2.7-17.4,4.3-26.5,4.7c-3.4,0.2-6.8,0.4-10.1,0.2c-1.5-0.1-2,0.4-2.5,1.7
	c-3,7.4-6.1,14.8-9.3,22.2c-8.7,19.6-18.8,38.4-30.8,56.2c-10.6,15.7-22.6,30.4-36.3,43.7c-10.8,10.5-22.4,20.2-34.9,28.7
	c-9.4,6.4-19.1,12.1-29.2,17.3c-10.2,5.2-20.6,9.7-31.3,13.7c-13.6,5-27.5,9-41.7,12.2c-8.9,2-17.8,3.8-26.8,4.9
	c-8,1-15.9,1.9-23.9,2.6c-4.3,0.3-8.8,0.1-13,0.6c-10.2,1.3-20.5,0.3-30.7,0.6c-5.8,0.2-11.5-0.7-17.3-1c-10-0.4-20-1.7-30-3.3
	c-12-1.9-23.8-4.3-35.4-7.8c-7.2-2.2-14.3-4.7-21.3-7.6c-12.6-5.2-24-12.3-34.3-21.3c-8.1-7-15-15-21.2-23.7
	c-7.2-10-13-20.8-17.9-32.1c-5-11.5-9-23.4-12.2-35.6c-3-11.6-5.2-23.4-6.7-35.3c-0.8-6.3-1.5-12.7-1.4-19.1c0-1.1-0.1-2.1-0.4-3.1
	c-1.3-5.2-1.2-10.7-0.5-15.9c1-7.7,5-14.1,12.1-18.1c3.7-2.1,7.6-2.8,11.7-2.8c4.6-0.1,9.3-0.1,13.9,0c1.4,0,1.8-0.3,1.8-1.8
	c-0.1-10.3-0.2-20.7-0.2-31c0-7.7,0-15.3,0.2-23c0.2-6.9,5.8-12.2,11.2-12.4c1.3-0.1,2.5-0.2,3.8-0.2c18.5,0,37,0,55.5,0
	c2.5,0,2.5,0,2.5-2.5c0-17.2,0.1-34.3-0.1-51.5c-0.1-7.5,5.4-13.9,13.8-13.8c43.2,0.2,86.4,0.1,129.6,0.1c4.8,0,4,0.5,4-4
	c0-12.4,0-24.8-0.1-37.2c0-4.9-0.2-9.9,0.1-14.8C260.6,5,267.4,0,273.3,0c19.8,0.1,39.5,0,59.3,0c6.3,0,11.7,5,12.5,10.8
	c0.2,1.4,0.2,2.9,0.2,4.3c0,38.9,0,77.7,0,116.6c0,3.7,0,3.6,3.5,3.7c18.8,0.5,37.6,0.1,56.4,0.2c5.8,0,10.3,2.2,12.8,7.7
	c0.9,2.1,1.1,4.3,1.1,6.5c0,16.7,0,33.3,0,50c0,0.7,0,1.4,0,2c-0.1,1.3,0.5,1.6,1.8,1.5c10.3-1.3,20.4-3.2,30.1-6.9
	C453.2,195.6,455.3,194.6,457.7,193.5z M238,418.6c1.6,0.3,3.1-0.4,4.6-0.5c7.7-0.5,15.4-1.3,23-2.5c7.2-1.1,14.5-2.3,21.6-3.8
	c10.4-2.2,20.7-4.9,30.8-8.1c10.8-3.4,21.4-7.4,31.7-12c11.8-5.3,23.1-11.4,33.9-18.4c8.6-5.6,16.9-11.6,24.8-18.2
	c7.3-6.1,14.1-12.7,20.7-19.4c5.3-5.4,10.2-11.1,14.9-17c7.1-9.1,13.8-18.4,19.9-28.2c6.8-10.9,12.8-22.3,18.5-33.9
	c4.1-8.4,7.9-17,11.5-25.7c2-4.9,4.1-9.8,6-14.8c0.5-1.4,1.3-1.8,2.6-1.6c1.3,0.2,2.6,0.5,4,0.5c7.1,0.1,14.1-0.2,21.1-1
	c6.7-0.8,13.1-2.4,19.4-4.7c10.8-4,20.2-10.2,28-18.7c4.6-5,8.3-10.6,11.3-16.8c1.1-2.3,0.9-3-1.3-4.2c-4-2.2-8.2-4-12.6-5.2
	c-5.4-1.5-10.9-2.4-16.5-3c-8.3-0.9-16.6-0.7-24.9,0.3c-6.1,0.7-12.2,1.9-18.3,2.8c-2,0.3-2.4,0.2-2.5-1.9c-0.1-2.3-0.4-4.6-0.6-6.9
	c-1.1-9.3-3.7-18.2-8.1-26.4c-5.3-10-12.6-18.6-21.3-25.8c-2.2-1.9-4.6-3.5-6.9-5.3c-0.8-0.6-1.4-0.5-1.8,0.4
	c-0.3,0.6-0.7,1.1-1.1,1.7c-2.5,4.1-4.6,8.5-6.5,13c-4.4,10-6.8,20.5-7.7,31.4c-0.5,6,0.1,12,1.2,17.9c2.1,11.7,6.9,22.3,14.6,31.5
	c1.1,1.3,0.8,1.9-0.2,2.9c-3,2.9-6.6,5.1-10.3,7c-9.8,5.1-20.5,7.3-31.2,9.3c-8,1.5-16.1,1.7-24.2,1.7
	c-125.8,0.1-251.7,0.1-377.5,0.1c-2,0-4.1,0-6.1,0.1c-5.6,0.2-10.3,4.7-10.5,10.3c-0.3,10.3,0.1,20.5,1.3,30.7
	c0.9,7.5,1.9,14.9,3.3,22.3c2.1,11.2,4.9,22.3,8.5,33.1c3.5,10.5,7.8,20.6,13,30.4c3.5,6.6,7.5,12.8,11.8,19
	c1.8,2.7,3.8,4.3,7.4,4.6c5.3,0.5,10.6,0.9,15.9,1.3c4.9,0.3,9.8,0.1,14.8-0.3c6.3-0.5,12.5-1.3,18.6-2.5
	c14.6-2.9,28.5-7.9,41.5-15.1c1.7-0.9,3.3-2,5.1-2.7c2.3-0.9,4.6-0.4,6,1.3c1.9,2.2,2.2,4.6,0.9,7c-0.4,0.7-1.1,1.1-1.2,2
	c-0.9-0.3-1.6,0.1-2.4,0.6c-17.9,10.3-37.1,16.9-57.6,19.6c-10.6,1.4-21.2,2.1-31.8,1c-0.9-0.1-1.9-0.5-2.7,0.5
	c4.8,4.4,9.7,8.5,15,12.1c12.5,8.4,26.3,14,40.7,18.2c14.9,4.3,30.1,7.1,45.5,8.9c11.8,1.4,23.7,2,35.6,2.5
	c9.2,0.4,18.4,0.1,27.6-0.4C231.6,419.1,234.8,419.3,238,418.6z M229.4,135.4C229.4,135.4,229.4,135.4,229.4,135.4
	c5.8,0.1,11.6,0.1,17.4,0.1c2.6,0,5.2,0,7.8-0.1c3.6-0.1,5.1-1.3,5.8-4.8c0.2-1.3,0.2-2.7,0.2-4.1c0-13,0-26,0-39
	c0-1.6-0.2-3.1-0.6-4.6c-0.5-1.8-1.6-3-3.5-3.4c-1.7-0.3-3.4-0.5-5.2-0.5c-14.1,0-28.3,0-42.4,0c-2.1,0-4,0.4-6,0.6
	c-1.9,0.2-3.8,1.9-3.8,3.4c-0.1,1.9-0.6,3.8-0.6,5.8c0.2,13.6-0.3,27.3,0.4,41c0.2,3.7,2.1,5.7,5.8,5.6
	C212.9,135.3,221.1,135.4,229.4,135.4z M229.7,147c-4.3,0-8.5,0-12.8,0c-4.2,0-8.3,0-12.5,0.1c-3.3,0.1-5.1,1.7-5.7,4.9
	c-0.2,0.8-0.2,1.7-0.2,2.6c0,11.6,0,23.3,0.1,34.9c0,3,0.4,6,0.5,9c0.1,2.6,1.8,4.2,4.1,4.4c5.3,0.6,10.6,0.7,15.9,0.3
	c4.2-0.3,8.5,0.6,12.7-0.2c2.5-0.5,5,0.4,7.5,0.3c5.5-0.1,10.9-0.2,16.4-0.4c2.3-0.1,3.7-1.2,4.5-3.4c0.4-1,0.5-2.1,0.5-3.1
	c0-14,0.1-28.1-0.1-42.1c-0.1-5.3-1.1-7.3-7.3-7.2C245.4,147,237.5,147,229.7,147z M155.3,135.4c8.4,0,16.9,0,25.3,0
	c3.5,0,5.3-1.7,5.7-5.2c0.1-0.5,0-1,0-1.5c0-14,0-27.9,0-41.9c0-1,0-1.9-0.1-2.9c-0.2-2.5-1.7-3.9-4.2-4.4c-2.3-0.4-4.6-0.5-6.9-0.5
	c-6.5,0-12.9,0-19.4,0c-6.5,0-13,0-19.5,0c-2.1,0-4.2,0-6.4,0.4c-3.5,0.6-5.3,2.4-5.3,6c0,14.5,0,29.1,0.1,43.6
	c0,4.4,1.9,6.2,6.2,6.2C139,135.4,147.1,135.4,155.3,135.4z M155.7,147C155.7,147,155.7,147.1,155.7,147c-8.1,0-16.3,0-24.4,0.1
	c-4.8,0-6.7,2-6.7,6.7c0,12.6,0,25.2,0,37.8c0,2.1,0,4.3,0.1,6.4c0.2,3,1.8,4.8,4.3,4.9c3.4,0.1,6.7,0.6,10.1,0.5
	c9.6-0.1,19.2,0,28.7,0c4.4,0,8.9,0.3,13.3-0.4c3.7-0.6,5-1.9,5.1-5.7c0-14.8,0-29.6,0.1-44.4c0-3.1-1-5-5.2-5.7
	c-1.2-0.2-2.5-0.1-3.8-0.1C170.2,147,162.9,147,155.7,147z M302.4,135.4C302.4,135.4,302.4,135.4,302.4,135.4
	c5.1,0.1,10.3,0.1,15.4,0.1c3.6,0,7.2,0,10.7-0.1c2.4-0.1,4.4-1.3,4.7-3.1c0.3-1.7,0.7-3.4,0.7-5.2c0-13.7,0-27.3,0-41
	c0-1.1-0.1-2.1-0.5-3.1c-0.9-1.9-2-3.3-4.5-3.5c-2.6-0.2-5.2-0.4-7.8-0.4c-12.3,0-24.6,0-36.9,0c-2.2,0-4.4,0-6.6,0.4
	c-4.7,0.7-5.8,1.8-5.9,6.5c0,13.9,0,27.9,0,41.8c0,1.1,0,2.1,0.3,3.2c0.9,3.4,2,4.4,5.4,4.4C285.8,135.4,294.1,135.4,302.4,135.4z
	 M302.6,147.1C302.6,147.1,302.6,147,302.6,147.1c-7.3-0.1-14.5-0.1-21.8,0c-1.3,0-2.5,0-3.8,0.1c-3.4,0.3-5.2,2.2-5.3,5.6
	c0,0.6,0,1.2,0,1.7c0,13.1,0,26.2,0,39.2c0,1.4,0,2.9,0.2,4.3c0.7,3.8,1.3,4.3,5.2,5c1.1,0.2,2.1,0.3,3.2,0.3c13.1,0,26.1,0,39.2,0
	c3.2,0,6.3-0.2,9.5-0.4c2.4-0.2,4.3-1.7,4.3-3.9c0.1-3.5,0.7-6.9,0.6-10.4c-0.1-8.4,0-16.9,0-25.3c0-3.1,0-6.2,0.1-9.3
	c0-1.8-0.4-3.5-1.4-4.9c-1.4-1.8-3.4-2-5.5-2C318.9,147.1,310.8,147.1,302.6,147.1z M113.6,175.2
	C113.6,175.2,113.6,175.2,113.6,175.2c0-7.2,0-14.3,0-21.5c0-4.7-1.7-6.2-6.2-6.6c-0.5,0-1,0-1.5,0c-15.6,0-31.2,0-46.8,0
	c-0.6,0-1.2,0-1.7,0c-3.6,0.3-4.8,1.4-5.7,5c-0.3,1.1-0.3,2.1-0.3,3.2c0,8.5,0.1,17,0,25.6c-0.1,5.8,0.2,11.6,0.5,17.4
	c0.1,2.5,1.4,4.4,3.6,4.5c3.6,0.2,7.1,1.1,10.7,0.5c2.9-0.5,5.8-0.4,8.7-0.2c5.3,0.5,10.6,0.3,15.8,0.3c3.9,0,7.9-0.3,11.8-0.4
	c2-0.1,4.1,0,6.1-0.1c2.3-0.1,3.7-1.3,4.5-3.4c0.4-1.2,0.5-2.4,0.5-3.7C113.6,188.9,113.6,182.1,113.6,175.2z M303.1,11.5
	C303.1,11.5,303.1,11.5,303.1,11.5c-4.9,0-9.9,0-14.8,0c-3.5,0-7-0.1-10.5,0c-3.8,0.1-5.8,2.2-6,6c0,0.5,0,1,0,1.5
	c0,13.8,0,27.5,0,41.3c0,1,0.1,1.9,0.3,2.9c0.9,3.6,1.6,4.3,5.3,4.3c12.7,0,25.3,0.1,38,0c4.5,0,8.9,0,13.4-0.1
	c2.3,0,4.2-1.4,4.5-3.3c0.3-1.6,0.5-3.3,0.6-4.9c0.1-13.4,0.1-26.7,0.1-40.1c0-1.3-0.1-2.5-0.5-3.7c-0.8-2.6-2.1-3.7-4.8-3.8
	c-1-0.1-1.9,0-2.9,0C318.2,11.5,310.6,11.5,303.1,11.5z M377.2,147C377.2,147,377.2,147.1,377.2,147c-4.5,0-9.1,0-13.6,0
	c-3.6,0-7.2-0.1-10.7,0c-5.3,0.2-7.3,2.1-7.3,7.1c0.1,14,0.1,28.1,0.1,42.1c0,1.2,0.1,2.3,0.6,3.4c0.7,1.6,1.7,2.9,3.5,3.1
	c2.1,0.2,4.2,0.6,6.3,0.6c4.8-0.2,9.6-0.2,14.4-0.1c5.5,0.1,11-0.5,16.4-0.1c5.4,0.3,10.8-0.2,16.1-0.3c2.6-0.1,4.1-1.4,4.1-3.9
	c0-4.1,0.6-8.1,0.6-12.2c-0.1-10.7,0-21.5,0-32.3c0-1,0.1-2-0.1-2.9c-0.4-2.4-1.8-4-4.3-4.5c-0.9-0.2-1.7-0.2-2.6-0.2
	C392.9,147,385.1,147,377.2,147z"/>
<path fill="#039CFD" d="M158.8,356.3c0.1-0.8,0.8-1.3,1.2-2c1.3-2.4,1.1-4.7-0.9-7c-1.5-1.7-3.7-2.2-6-1.3c-1.8,0.7-3.4,1.8-5.1,2.7
	c-13,7.2-26.9,12.2-41.5,15.1c-6.1,1.2-12.4,2-18.6,2.5c-4.9,0.4-9.9,0.6-14.8,0.3c-5.3-0.4-10.6-0.8-15.9-1.3
	c-3.6-0.3-5.6-2-7.4-4.6c-4.2-6.1-8.3-12.4-11.8-19c-5.2-9.8-9.5-19.9-13-30.4c-3.6-10.8-6.4-21.9-8.5-33.1
	c-1.4-7.4-2.4-14.9-3.3-22.3c-1.2-10.2-1.6-20.4-1.3-30.7c0.2-5.6,4.9-10.1,10.5-10.3c2-0.1,4.1-0.1,6.1-0.1
	c125.8,0,251.7,0,377.5-0.1c8.1,0,16.2-0.2,24.2-1.7c10.7-2,21.4-4.2,31.2-9.3c3.7-1.9,7.2-4.1,10.3-7c1-0.9,1.3-1.6,0.2-2.9
	c-7.6-9.2-12.5-19.8-14.6-31.5c-1.1-5.9-1.7-11.9-1.2-17.9c0.9-10.9,3.3-21.4,7.7-31.4c1.9-4.4,4-8.8,6.5-13
	c0.4-0.6,0.7-1.1,1.1-1.7c0.5-0.9,1-1,1.8-0.4c2.3,1.8,4.7,3.4,6.9,5.3c8.7,7.3,16,15.8,21.3,25.8c4.4,8.3,7,17.1,8.1,26.4
	c0.3,2.3,0.5,4.6,0.6,6.9c0.1,2,0.4,2.2,2.5,1.9c6.1-1,12.2-2.1,18.3-2.8c8.3-0.9,16.6-1.2,24.9-0.3c5.6,0.6,11.1,1.5,16.5,3
	c4.4,1.2,8.6,3,12.6,5.2c2.2,1.2,2.5,1.9,1.3,4.2c-2.9,6.1-6.7,11.8-11.3,16.8c-7.8,8.5-17.2,14.7-28,18.7
	c-6.2,2.3-12.7,3.9-19.4,4.7c-7,0.8-14.1,1.1-21.1,1c-1.4,0-2.7-0.3-4-0.5c-1.3-0.2-2.1,0.2-2.6,1.6c-1.9,5-4,9.9-6,14.8
	c-3.6,8.7-7.3,17.3-11.5,25.7c-5.6,11.6-11.6,23-18.5,33.9c-6.1,9.8-12.8,19.1-19.9,28.2c-4.7,5.9-9.6,11.6-14.9,17
	c-6.6,6.8-13.4,13.4-20.7,19.4c-7.9,6.6-16.2,12.6-24.8,18.2c-10.8,7-22.2,13-33.9,18.4c-10.3,4.7-20.9,8.7-31.7,12
	c-10.1,3.2-20.4,5.9-30.8,8.1c-7.2,1.5-14.4,2.7-21.6,3.8c-7.6,1.2-15.3,2-23,2.5c-1.5,0.1-3,0.8-4.6,0.5c-0.2-1-1-1.1-1.7-1.3
	c-5.7-1.7-11-4.2-16.3-6.7c-8.8-4.2-17.1-9.4-24.9-15.2c-8.9-6.7-17.1-14.2-24.3-22.7C166.4,367.4,162.2,362.2,158.8,356.3z
	 M212.6,314.1c-0.1-11.1-8.3-19.3-19-19.9c-9.7-0.6-20.6,7.2-20.6,19.8c0,11,7.5,19.8,19.7,20.1C203.3,334.2,212.5,326,212.6,314.1z
	"/>
<path fill="#FFFFFF" d="M158.8,356.3c3.4,5.9,7.7,11.1,12,16.3c7.2,8.6,15.4,16.1,24.3,22.7c7.8,5.9,16.1,11,24.9,15.2
	c5.3,2.5,10.7,5,16.3,6.7c0.7,0.2,1.6,0.3,1.7,1.3c-3.1,0.7-6.4,0.4-9.5,0.6c-9.2,0.5-18.4,0.7-27.6,0.4
	c-11.9-0.5-23.7-1.1-35.6-2.5c-15.4-1.8-30.6-4.6-45.5-8.9c-14.4-4.2-28.2-9.7-40.7-18.2c-5.3-3.6-10.1-7.7-15-12.1
	c0.9-1,1.9-0.6,2.7-0.5c10.7,1.1,21.2,0.4,31.8-1c20.5-2.7,39.7-9.3,57.6-19.6C157.1,356.4,157.8,356.1,158.8,356.3z"/>
<path fill="#039CFD" d="M229.4,135.4c-8.2,0-16.5-0.1-24.7,0.1c-3.6,0.1-5.6-1.9-5.8-5.6c-0.7-13.6-0.2-27.3-0.4-41
	c0-2,0.5-3.8,0.6-5.8c0.1-1.6,1.9-3.2,3.8-3.4c2-0.3,4-0.6,6-0.6c14.1,0.1,28.3,0,42.4,0c1.8,0,3.5,0.2,5.2,0.5
	c1.9,0.3,3,1.6,3.5,3.4c0.4,1.5,0.6,3,0.6,4.6c0,13,0,26,0,39c0,1.4,0,2.7-0.2,4.1c-0.7,3.5-2.2,4.7-5.8,4.8
	c-2.6,0.1-5.2,0.1-7.8,0.1C241,135.4,235.2,135.4,229.4,135.4C229.4,135.4,229.4,135.4,229.4,135.4z M232.7,107.5
	C232.7,107.5,232.7,107.5,232.7,107.5c0-4.5,0-9.1,0-13.6c0-3.1-0.2-3.3-3.3-3.2c-0.3,0-0.6,0-0.9,0c-1.1,0-1.7,0.5-1.6,1.6
	c0.2,2.3-0.5,4.6-0.5,6.9c0,7,0,13.9,0,20.9c0,1.1,0,2.1,0.4,3.1c0.1,0.4,0.2,0.8,0.6,1c1.4,0.5,2.9,0.5,4.3,0.1
	c1.3-0.4,1-1.7,1-2.7C232.7,116.8,232.7,112.1,232.7,107.5z M243.8,107.8C243.8,107.8,243.8,107.8,243.8,107.8c0,4.6,0,9.3,0,13.9
	c0,2.6,0,2.6,2.6,2.6c0.4,0,0.8,0,1.2,0c1.3,0,2-0.6,2-1.9c0-0.7,0-1.4,0-2c0-8.1,0-16.3,0-24.4c0-1.2,0-2.3,0-3.5
	c0-0.6-0.1-1.3-0.6-1.5c-1.4-0.6-2.9-0.5-4.3-0.2c-1.4,0.4-0.9,1.8-0.9,2.7C243.8,98.3,243.8,103,243.8,107.8z M215.4,107.2
	C215.4,107.2,215.4,107.2,215.4,107.2c0-1.5,0-2.9,0-4.4c0-3.4-0.1-6.8,0-10.2c0-1.5-0.6-2.1-2-2c-0.4,0-0.8,0-1.2,0
	c-2,0.1-2.1,0.2-2.1,2.2c-0.1,2.7-0.3,5.4-0.4,8.1c-0.3,7.2-0.1,14.5,0.4,21.7c0,0.6,0,1.3,0.6,1.5c1.3,0.4,2.7,0.5,4-0.1
	c1.1-0.5,0.7-1.7,0.7-2.6C215.4,116.7,215.4,111.9,215.4,107.2z"/>
<path fill="#039CFD" d="M229.7,147c7.8,0,15.7,0,23.5,0c6.2,0,7.2,1.9,7.3,7.2c0.2,14,0.1,28.1,0.1,42.1c0,1.1-0.1,2.1-0.5,3.1
	c-0.8,2.2-2.2,3.3-4.5,3.4c-5.5,0.2-10.9,0.4-16.4,0.4c-2.5,0-5-0.8-7.5-0.3c-4.2,0.8-8.4-0.1-12.7,0.2c-5.3,0.4-10.6,0.2-15.9-0.3
	c-2.3-0.2-4-1.9-4.1-4.4c-0.1-3-0.5-6-0.5-9c-0.1-11.6-0.1-23.3-0.1-34.9c0-0.9,0-1.8,0.2-2.6c0.6-3.3,2.4-4.9,5.7-4.9
	c4.2-0.1,8.3-0.1,12.5-0.1C221.2,147,225.4,147,229.7,147z M232.7,175.7C232.7,175.7,232.7,175.7,232.7,175.7c0-4.8,0-9.7,0-14.5
	c0-2.2-0.3-2.5-2.5-2.6c-0.4,0-0.8,0-1.2,0c-1.4-0.1-2.1,0.5-2.1,2c0,3.2-0.2,6.4-0.4,9.5c-0.4,6.6,0.3,13.1,0.4,19.7
	c0,2,0.1,2,2.2,2.1c0.2,0,0.4,0,0.6,0c2.9,0,3,0,3-2.8C232.7,184.6,232.7,180.2,232.7,175.7z M249.6,175.5
	C249.6,175.5,249.6,175.5,249.6,175.5c0-4.7,0-9.5,0-14.2c0-0.9,0.2-1.9-0.8-2.3c-1.3-0.5-2.8-0.9-4.2-0.2c-1.1,0.6-0.7,1.7-0.7,2.6
	c0,9.3,0,18.6,0,27.9c0,0.6,0,1.2,0.1,1.7c0,0.5,0.3,1,0.8,1.1c1.3,0.2,2.7-0.1,4-0.5c1.1-0.3,0.9-1.6,0.9-2.5
	C249.6,184.6,249.6,180,249.6,175.5z M215.4,175.4C215.4,175.4,215.4,175.4,215.4,175.4c0-4.9,0-9.9-0.1-14.8c0-1.7-0.7-2.3-2.2-2.4
	c-1.8-0.1-3,0.7-3,2.2c0,3.1-0.4,6.2-0.5,9.3c-0.1,5-0.1,10.1,0,15.1c0,1.6,0.1,3.3,0.3,4.9c0.2,2.2,0.7,2.6,2.3,2.6
	c2.8-0.1,3.2-0.4,3.2-2.8C215.4,184.7,215.4,180.1,215.4,175.4z"/>
<path fill="#039CFD" d="M155.3,135.4c-8.1,0-16.3,0-24.4,0c-4.3,0-6.1-1.9-6.2-6.2c-0.1-14.5-0.1-29.1-0.1-43.6c0-3.6,1.8-5.4,5.3-6
	c2.1-0.4,4.2-0.4,6.4-0.4c6.5,0,13,0,19.5,0c6.5,0,12.9,0,19.4,0c2.3,0,4.6,0,6.9,0.5c2.5,0.5,4,1.9,4.2,4.4c0.1,1,0.1,1.9,0.1,2.9
	c0,14,0,27.9,0,41.9c0,0.5,0,1,0,1.5c-0.4,3.5-2.2,5.2-5.7,5.2C172.1,135.4,163.7,135.4,155.3,135.4z M135.7,107.2
	C135.7,107.2,135.7,107.2,135.7,107.2c0,0.9,0,1.7,0,2.6c0,4.1,0,8.1,0,12.2c0,2.1,0.3,2.3,2.4,2.4c0.5,0,1,0,1.4,0
	c1.3,0,1.9-0.7,1.9-2c0-0.9,0-1.7,0-2.6c0-8.3,0-16.6,0-24.9c0-0.9,0-1.7,0-2.6c0-0.5,0-1.1-0.5-1.3c-1.4-0.5-2.9-0.5-4.3-0.1
	c-1.2,0.3-1,1.5-1,2.5C135.7,97.9,135.7,102.5,135.7,107.2z M158.4,107.4C158.4,107.4,158.4,107.4,158.4,107.4c0-4.8,0-9.7,0-14.5
	c0-0.7,0.2-1.6-0.7-2.1c-2.4-1.3-5,0.2-5.1,2.8c0,0.3,0,0.6,0,0.9c0,8.7,0,17.4,0,26.1c0,0.7,0,1.4,0.1,2c0,0.6,0.2,1.2,0.8,1.4
	c1.3,0.4,2.7,0.5,4,0c1.3-0.5,1-1.8,1-2.8C158.4,116.7,158.4,112,158.4,107.4z M175.2,107.5C175.2,107.5,175.2,107.5,175.2,107.5
	c0-4.7,0-9.5,0-14.2c0-0.8,0.2-1.9-0.8-2.3c-1.2-0.5-2.5-0.5-3.7-0.1c-1.2,0.4-0.8,1.6-0.8,2.5c0,4.4,0.4,8.9-0.1,13.3
	c-0.6,5.3,0.1,10.6,0.1,15.9c0,0.6,0,1.2,0.6,1.5c2,1.2,4.7-0.2,4.7-2.5C175.3,116.9,175.2,112.2,175.2,107.5z"/>
<path fill="#039CFD" d="M155.7,147c7.3,0,14.5,0,21.8,0c1.3,0,2.5-0.1,3.8,0.1c4.1,0.8,5.2,2.6,5.2,5.7c-0.1,14.8-0.1,29.6-0.1,44.4
	c0,3.8-1.3,5.1-5.1,5.7c-4.4,0.7-8.9,0.4-13.3,0.4c-9.6,0.1-19.2-0.1-28.7,0c-3.4,0-6.7-0.4-10.1-0.5c-2.6-0.1-4.2-1.9-4.3-4.9
	c-0.1-2.1-0.1-4.3-0.1-6.4c0-12.6,0-25.2,0-37.8c0-4.7,1.9-6.7,6.7-6.7C139.4,147,147.5,147.1,155.7,147
	C155.7,147.1,155.7,147,155.7,147z M135.7,175C135.7,175,135.7,175,135.7,175c0,4.8,0,9.7,0,14.5c0,2.4,0.1,2.4,2.5,2.4
	c0.2,0,0.4,0,0.6,0c2.6-0.1,2.6-0.1,2.6-2.6c0-3.7,0-7.3,0-11c0-5.7,0-11.4,0-17.1c0-0.8,0.2-1.6-0.3-2.2c-0.5-0.7-3.2-0.9-4.2-0.6
	c-1.3,0.5-1.2,1.6-1.2,2.6C135.7,165.7,135.7,170.3,135.7,175z M158.4,175.5c0-1.7,0-3.5,0-5.2c0-3.2,0-6.4-0.1-9.6
	c0-0.7,0.1-1.6-0.9-1.9c-2.9-1-4.7,0.1-4.9,3.2c0,0.2,0,0.4,0,0.6c0,8.7,0,17.4,0,26.1c0,3,0.4,3.3,3.4,3.3c2.3-0.1,2.4-0.1,2.4-2.5
	C158.4,184.7,158.4,180.1,158.4,175.5z M175.2,175.5C175.2,175.5,175.2,175.5,175.2,175.5c0-4.6,0-9.1,0-13.7c0-3-0.4-3.4-3.2-3.4
	c-1.8,0-2.1,0.5-2.1,3.6c0,2.3,0.1,4.7-0.1,7c-0.6,7.1-0.6,14.1,0,21.1c0.1,1.4,0.6,2.2,2.1,2.1c2.6,0,3.3-0.5,3.3-2.5
	C175.3,185,175.2,180.2,175.2,175.5z"/>
<path fill="#039CFD" d="M302.4,135.4c-8.3,0-16.7,0-25,0c-3.4,0-4.5-1-5.4-4.4c-0.3-1.1-0.3-2.1-0.3-3.2c0-13.9,0-27.9,0-41.8
	c0-4.7,1.2-5.8,5.9-6.5c2.2-0.3,4.4-0.4,6.6-0.4c12.3,0,24.6,0,36.9,0c2.6,0,5.2,0.2,7.8,0.4c2.4,0.2,3.6,1.6,4.5,3.5
	c0.4,1,0.5,2,0.5,3.1c0,13.7,0,27.3,0,41c0,1.8-0.4,3.5-0.7,5.2c-0.3,1.9-2.2,3.1-4.7,3.1c-3.6,0.1-7.2,0.1-10.7,0.1
	C312.7,135.5,307.6,135.5,302.4,135.4C302.4,135.4,302.4,135.4,302.4,135.4z M289.1,106.4c0-2.8,0-5.6,0-8.4c0-1.7,0-3.5,0-5.2
	c0-0.9-0.2-1.7-1.3-2c-3.3-1-4.8,0-4.9,3.4c0,0.4,0,0.8,0,1.2c0,8.3,0,16.7,0,25c0,0.9,0.1,1.7,0.2,2.6c0.1,0.6,0.4,1.2,1,1.3
	c1.3,0.2,2.8,0.4,4-0.1c0.9-0.4,0.4-1.6,0.6-2.4c0.5-1.8,0.4-3.6,0.4-5.5C289.1,112.9,289.1,109.6,289.1,106.4z M322.8,107.4
	C322.8,107.4,322.8,107.4,322.8,107.4c0-4.5,0-9.1,0-13.6c0-3.2,0-3.2-3.2-3.1c-0.3,0-0.6,0-0.9,0c-1.2-0.1-1.7,0.6-1.7,1.8
	c0.1,4.1-0.2,8.1-0.5,12.2c-0.3,5.9,0.6,11.8,0.5,17.7c0,0.4,0,0.8,0.1,1.2c0.1,0.3,0.2,0.6,0.4,0.7c1.4,0.4,2.9,0.5,4.3,0
	c1.2-0.4,1-1.5,1-2.5C322.8,116.9,322.8,112.2,322.8,107.4z M305.5,107.6c0-4.8,0-9.7,0-14.5c0-2.3-0.1-2.3-2.2-2.4
	c-0.5,0-1,0-1.5,0c-1.1,0-1.7,0.5-1.6,1.6c0.1,2.5-0.6,5-0.5,7.5c0.1,7.3-0.2,14.5,0.5,21.8c0.3,2.9,0.1,2.9,3,2.9
	c2.3-0.1,2.4-0.1,2.4-2.5C305.5,117.1,305.5,112.3,305.5,107.6z"/>
<path fill="#039CFD" d="M302.6,147.1c8.1,0,16.3,0,24.4,0c2,0,4.1,0.2,5.5,2c1.1,1.5,1.4,3.1,1.4,4.9c0,3.1,0,6.2-0.1,9.3
	c0,8.4-0.1,16.9,0,25.3c0.1,3.5-0.5,6.9-0.6,10.4c0,2.1-1.9,3.7-4.3,3.9c-3.2,0.2-6.3,0.4-9.5,0.4c-13.1,0.1-26.1,0-39.2,0
	c-1.1,0-2.1-0.1-3.2-0.3c-3.9-0.7-4.5-1.2-5.2-5c-0.2-1.4-0.2-2.9-0.2-4.3c0-13.1,0-26.2,0-39.2c0-0.6,0-1.2,0-1.7
	c0.1-3.5,1.9-5.3,5.3-5.6c1.3-0.1,2.5-0.1,3.8-0.1C288.1,147,295.4,147,302.6,147.1C302.6,147,302.6,147.1,302.6,147.1z
	 M282.8,175.1C282.8,175.1,282.8,175.1,282.8,175.1c0,4.3,0,8.5,0,12.8c0,0.9,0,1.8,0.2,2.6c0.5,1.7,4.2,2.4,5.4,1.2
	c0.3-0.4,0.4-0.8,0.5-1.3c0-4.5,0.1-9.1,0.2-13.6c0-5.1,0-10.3,0-15.4c0-2.3-0.1-2.4-2.4-2.7c-0.4-0.1-0.8-0.1-1.1-0.2
	c-1.5-0.4-2.2,0.4-2.5,1.7c-0.2,0.7-0.2,1.5-0.2,2.3C282.8,166.6,282.8,170.8,282.8,175.1z M322.8,175.6
	C322.8,175.6,322.8,175.6,322.8,175.6c0-4.4,0-8.7,0-13.1c0-0.7,0-1.4,0-2c0-1.1-0.6-1.8-1.8-1.8c-0.7,0-1.4,0-2,0
	c-1.3,0-2,0.4-2,1.8c0,3.7-0.2,7.3-0.4,11c-0.3,6.2-0.2,12.4,0.4,18.6c0.2,2,0.5,2.3,2.5,2.3c2.5,0,3.3-0.6,3.3-2.5
	C322.9,185.1,322.8,180.3,322.8,175.6z M305.5,175.2C305.5,175.2,305.5,175.2,305.5,175.2c0-4.4,0-8.9,0-13.3c0-3.3-0.2-3.4-3.4-3.2
	c-1.1,0.1-1.8,0.3-1.9,1.6c-0.2,1.1-0.4,2.3-0.4,3.4c0,7.3,0,14.7,0,22c0,1.7,0.3,3.4,0.5,5.2c0.1,1.1,0.7,1.5,1.8,1.3
	c0.5-0.1,1-0.1,1.4-0.2c2-0.2,2.1-0.2,2.1-2.2C305.5,184.8,305.5,180,305.5,175.2z"/>
<path fill="#039CFD" d="M113.6,175.2c0,6.9,0,13.8,0,20.6c0,1.3-0.1,2.5-0.5,3.7c-0.8,2.1-2.2,3.3-4.5,3.4c-2,0.1-4.1,0-6.1,0.1
	c-3.9,0.1-7.9,0.4-11.8,0.4c-5.3,0-10.6,0.2-15.8-0.3c-2.9-0.3-5.8-0.3-8.7,0.2c-3.6,0.6-7.1-0.3-10.7-0.5c-2.2-0.1-3.5-2-3.6-4.5
	c-0.3-5.8-0.6-11.6-0.5-17.4c0.1-8.5,0-17,0-25.6c0-1.1,0-2.1,0.3-3.2c0.9-3.6,2-4.7,5.7-5c0.6,0,1.2,0,1.7,0c15.6,0,31.2,0,46.8,0
	c0.5,0,1,0,1.5,0c4.5,0.4,6.2,1.9,6.2,6.6C113.6,160.8,113.6,168,113.6,175.2C113.6,175.2,113.6,175.2,113.6,175.2z M68.8,175.3
	C68.8,175.3,68.8,175.3,68.8,175.3c0-4.8,0-9.7,0-14.5c0-1.9-0.9-2.6-2.9-2.6c-2,0-2.9,0.7-2.9,2.6c0,1.4-0.5,2.7-0.5,4
	c0,7.9-0.1,15.8,0,23.8c0,3.1,0.5,3.4,3.7,3.3c0.1,0,0.2,0,0.3,0c2.2-0.1,2.3-0.1,2.3-2.3C68.8,184.8,68.8,180.1,68.8,175.3z
	 M102.5,175.5C102.5,175.5,102.5,175.5,102.5,175.5c0-4.8,0-9.7,0-14.5c0-0.7,0.3-1.8-0.6-2.1c-1.5-0.5-3.1-0.6-4.6,0
	c-1,0.4-0.6,1.7-0.6,2.7c0,9.1,0,18.2,0,27.3c0,3.1,0.1,3.1,3.4,3c2.4-0.1,2.4-0.1,2.5-2.4C102.5,184.8,102.5,180.1,102.5,175.5z
	 M85.6,173.5c0-4,0-7.9,0-11.9c0-2.8,0-2.8-2.8-3.2c-2.3-0.3-3,0.2-3,2.5c0,5.5,0,11,0,16.5c0,4,0,8.1,0,12.1c0,2.2,0.1,2.2,2.3,2.3
	c0.6,0,1.2,0,1.7,0c0.8,0,1.2-0.5,1.2-1.3c0-2.3,0.6-4.6,0.5-6.9C85.5,180.2,85.6,176.9,85.6,173.5z"/>
<path fill="#039CFD" d="M303.1,11.5c7.6,0,15.1,0,22.7,0c1,0,1.9,0,2.9,0c2.7,0.2,4,1.3,4.8,3.8c0.4,1.2,0.5,2.5,0.5,3.7
	c0,13.4,0,26.7-0.1,40.1c0,1.6-0.3,3.3-0.6,4.9c-0.4,1.9-2.2,3.3-4.5,3.3c-4.5,0.1-8.9,0-13.4,0.1c-12.7,0.1-25.3-0.1-38,0
	c-3.7,0-4.4-0.6-5.3-4.3c-0.2-1-0.3-1.9-0.3-2.9c0-13.8,0-27.5,0-41.3c0-0.5,0-1,0-1.5c0.2-3.8,2.3-5.9,6-6c3.5-0.1,7,0,10.5,0
	C293.2,11.5,298.1,11.5,303.1,11.5C303.1,11.5,303.1,11.5,303.1,11.5z M282.8,39.7C282.8,39.7,282.8,39.7,282.8,39.7
	c0,4.6,0,9.3,0,13.9c0,1-0.1,1.9,0.9,2.6c2.1,1.3,4.8,0.1,5.2-2.3c0.1-0.8,0.1-1.5,0.1-2.3c0-7.8,0-15.7,0-23.5
	c0-1.3-0.3-2.5-0.5-3.7c-0.1-0.5-0.2-0.9-0.6-1.2c-1.3-0.7-2.7-0.8-3.9-0.4c-1.2,0.4-1.2,1.6-1.2,2.7c0,0.5,0,1,0,1.5
	C282.8,31.2,282.8,35.5,282.8,39.7z M322.8,39.5C322.8,39.5,322.8,39.5,322.8,39.5c0-4.6,0-9.3,0-13.9c0-0.7,0.3-1.5-0.3-1.9
	c-1.2-0.8-2.6-1.1-4.1-0.8c-1.2,0.3-1.4,1.1-1.4,2.2c0,0.8-0.3,1.5-0.3,2.3c0.6,8.6,0,17.2,0.3,25.8c0,0.7,0,1.4,0,2
	c0,0.4,0.1,0.9,0.5,1c1.4,0.4,2.9,0.5,4.3,0.1c1.3-0.4,1-1.7,1-2.7C322.9,48.8,322.8,44.1,322.8,39.5z M305.5,39.6
	C305.5,39.6,305.5,39.6,305.5,39.6c0-4.5,0-9.1,0-13.6c0-2.7-0.8-3.4-3.4-3.3c-1.1,0.1-1.9,0.4-1.9,1.7c0,1.9-0.5,3.8-0.5,5.8
	c0.1,7.8-0.1,15.6,0.5,23.5c0.2,2.8,0.1,2.9,3,2.8c2.3-0.1,2.4-0.1,2.4-2.5C305.5,49.1,305.5,44.3,305.5,39.6z"/>
<path fill="#039CFD" d="M377.2,147c7.8,0,15.7,0,23.5,0c0.9,0,1.7,0,2.6,0.2c2.5,0.4,3.9,2.1,4.3,4.5c0.2,0.9,0.1,1.9,0.1,2.9
	c0,10.8-0.1,21.5,0,32.3c0,4.1-0.5,8.1-0.6,12.2c0,2.5-1.5,3.8-4.1,3.9c-5.4,0.1-10.7,0.6-16.1,0.3c-5.5-0.3-11,0.3-16.4,0.1
	c-4.8-0.1-9.6-0.1-14.4,0.1c-2.1,0.1-4.2-0.4-6.3-0.6c-1.8-0.1-2.9-1.5-3.5-3.1c-0.5-1.1-0.6-2.2-0.6-3.4c0-14,0.1-28.1-0.1-42.1
	c0-5.1,2-6.9,7.3-7.1c3.6-0.2,7.2,0,10.7,0C368.1,147.1,372.7,147.1,377.2,147C377.2,147.1,377.2,147,377.2,147z M379.8,173.8
	C379.8,173.8,379.8,173.8,379.8,173.8c0-4.4,0-8.7,0-13.1c0-2-0.7-2.6-2.6-2.6c-2.9,0-3.6,0.7-3.6,3.6c0,8.6,0,17.2,0,25.9
	c0,1.1,0.1,2.1,0.4,3.2c0.2,0.6,0.5,1.1,1.2,1.1c1.2,0,2.6,0.4,3.7-0.3c1-0.5,0.3-1.8,0.6-2.7c0.4-1.3,0.4-2.7,0.4-4
	C379.8,181.2,379.8,177.5,379.8,173.8z M356.7,175.5c0,4.3,0,8.5,0,12.8c0,3.8,0.1,3.8,3.9,3.6c1.4-0.1,1.8-0.6,1.9-1.9
	c0.5-4.2,0.4-8.5,0.4-12.7c0-5.3,0-10.6,0-16c0-1.3-0.1-2.4-1.8-2.7c-3.4-0.7-4.4,0.1-4.5,3.6C356.6,166.6,356.7,171.1,356.7,175.5z
	 M396.6,175C396.7,175,396.7,175,396.6,175c0-4.7,0.1-9.5,0-14.2c0-2-0.2-2.1-2.2-2.2c-0.3,0-0.6,0-0.9,0c-2.7,0-2.9,0.1-2.7,2.8
	c0.3,4.4-0.1,8.9-0.3,13.3c-0.2,5,0.5,9.8,0.3,14.7c0,0.8-0.2,1.8,0.5,2.1c1.3,0.7,2.9,0.5,4.3,0.2c1.2-0.3,1-1.5,1-2.4
	C396.6,184.5,396.6,179.8,396.6,175z"/>
<path fill="#FFFFFF" d="M212.6,314.1c-0.1,11.9-9.3,20.1-19.8,19.9c-12.2-0.3-19.7-9.1-19.7-20.1c0-12.6,10.9-20.4,20.6-19.8
	C204.3,294.8,212.5,303,212.6,314.1z M195.5,303.2c-7.1-1.4-11.7,3.1-13.2,7c-1.7,4.7,0,10.3,4.1,13.2c4.3,3,10,2.7,14-0.7
	c3.3-2.8,4.6-7.8,3-11.2c-2.5,1-5,1.5-7.3-0.7C193.8,308.6,194.1,306,195.5,303.2z"/>
<path fill="#0253A4" d="M232.7,107.5c0,4.6,0,9.3,0,13.9c0,1,0.3,2.4-1,2.7c-1.4,0.4-2.9,0.4-4.3-0.1c-0.4-0.1-0.4-0.6-0.6-1
	c-0.4-1-0.4-2.1-0.4-3.1c0-7,0-13.9,0-20.9c0-2.3,0.7-4.6,0.5-6.9c-0.1-1.1,0.5-1.6,1.6-1.6c0.3,0,0.6,0,0.9,0
	c3.1-0.1,3.3,0.1,3.3,3.2C232.7,98.4,232.7,103,232.7,107.5C232.7,107.5,232.7,107.5,232.7,107.5z"/>
<path fill="#0253A4" d="M243.8,107.8c0-4.7,0-9.5,0-14.2c0-1-0.5-2.4,0.9-2.7c1.4-0.4,2.9-0.4,4.3,0.2c0.6,0.3,0.6,0.9,0.6,1.5
	c0,1.2,0,2.3,0,3.5c0,8.1,0,16.3,0,24.4c0,0.7,0,1.4,0,2c0,1.3-0.7,1.9-2,1.9c-0.4,0-0.8,0-1.2,0c-2.5,0-2.6,0-2.6-2.6
	C243.8,117.1,243.8,112.4,243.8,107.8C243.8,107.8,243.8,107.8,243.8,107.8z"/>
<path fill="#0253A4" d="M215.4,107.2c0,4.7,0,9.5,0,14.2c0,0.9,0.3,2.1-0.7,2.6c-1.2,0.6-2.7,0.5-4,0.1c-0.6-0.2-0.6-0.9-0.6-1.5
	c-0.5-7.2-0.7-14.5-0.4-21.7c0.1-2.7,0.3-5.4,0.4-8.1c0.1-2,0.2-2.1,2.1-2.2c0.4,0,0.8,0,1.2,0c1.5-0.1,2.1,0.5,2,2
	c-0.1,3.4,0,6.8,0,10.2C215.4,104.3,215.4,105.7,215.4,107.2C215.4,107.2,215.4,107.2,215.4,107.2z"/>
<path fill="#0253A4" d="M232.7,175.7c0,4.4,0,8.9,0,13.3c0,2.8,0,2.8-3,2.8c-0.2,0-0.4,0-0.6,0c-2.1-0.1-2.2-0.1-2.2-2.1
	c-0.1-6.6-0.9-13.1-0.4-19.7c0.2-3.2,0.4-6.3,0.4-9.5c0-1.5,0.7-2.1,2.1-2c0.4,0,0.8,0,1.2,0c2.1,0.1,2.5,0.4,2.5,2.6
	C232.7,166.1,232.7,170.9,232.7,175.7C232.7,175.7,232.7,175.7,232.7,175.7z"/>
<path fill="#0253A4" d="M249.6,175.5c0,4.6,0,9.1,0,13.7c0,0.9,0.3,2.2-0.9,2.5c-1.3,0.4-2.6,0.7-4,0.5c-0.5-0.1-0.8-0.6-0.8-1.1
	c0-0.6-0.1-1.2-0.1-1.7c0-9.3,0-18.6,0-27.9c0-0.9-0.4-2,0.7-2.6c1.4-0.8,2.9-0.4,4.2,0.2c1,0.4,0.8,1.5,0.8,2.3
	C249.6,166,249.6,170.7,249.6,175.5C249.6,175.5,249.6,175.5,249.6,175.5z"/>
<path fill="#0253A4" d="M215.4,175.4c0,4.6,0,9.3,0,13.9c0,2.4-0.4,2.7-3.2,2.8c-1.6,0.1-2.1-0.3-2.3-2.6c-0.2-1.6-0.3-3.2-0.3-4.9
	c0-5-0.1-10.1,0-15.1c0.1-3.1,0.5-6.2,0.5-9.3c0-1.5,1.3-2.3,3-2.2c1.5,0.1,2.2,0.7,2.2,2.4C215.4,165.5,215.4,170.5,215.4,175.4
	C215.4,175.4,215.4,175.4,215.4,175.4z"/>
<path fill="#0253A4" d="M135.7,107.2c0-4.6,0-9.3,0-13.9c0-0.9-0.2-2.1,1-2.5c1.4-0.4,2.9-0.4,4.3,0.1c0.5,0.2,0.5,0.8,0.5,1.3
	c0,0.9,0,1.7,0,2.6c0,8.3,0,16.6,0,24.9c0,0.9,0,1.7,0,2.6c0,1.3-0.6,2-1.9,2c-0.5,0-1,0-1.4,0c-2.1-0.1-2.3-0.3-2.4-2.4
	c-0.1-4.1,0-8.1,0-12.2C135.7,108.9,135.7,108.1,135.7,107.2C135.7,107.2,135.7,107.2,135.7,107.2z"/>
<path fill="#0253A4" d="M158.4,107.4c0,4.6,0,9.3,0,13.9c0,1,0.3,2.3-1,2.8c-1.3,0.5-2.7,0.4-4,0c-0.6-0.2-0.8-0.8-0.8-1.4
	c0-0.7-0.1-1.4-0.1-2c0-8.7,0-17.4,0-26.1c0-0.3,0-0.6,0-0.9c0.1-2.6,2.7-4.1,5.1-2.8c0.9,0.5,0.7,1.3,0.7,2.1
	C158.4,97.7,158.4,102.6,158.4,107.4C158.4,107.4,158.4,107.4,158.4,107.4z"/>
<path fill="#0253A4" d="M175.2,107.5c0,4.7,0,9.5,0,14.2c0,2.3-2.7,3.7-4.7,2.5c-0.6-0.4-0.6-1-0.6-1.5c-0.1-5.3-0.8-10.5-0.1-15.9
	c0.5-4.4,0.1-8.9,0.1-13.3c0-0.9-0.4-2.1,0.8-2.5c1.2-0.4,2.5-0.4,3.7,0.1c1,0.4,0.8,1.5,0.8,2.3C175.2,98,175.2,102.7,175.2,107.5
	C175.2,107.5,175.2,107.5,175.2,107.5z"/>
<path fill="#0253A4" d="M135.7,175c0-4.6,0-9.3,0-13.9c0-1.1-0.1-2.2,1.2-2.6c1-0.4,3.6-0.1,4.2,0.6c0.5,0.7,0.3,1.5,0.3,2.2
	c0,5.7,0,11.4,0,17.1c0,3.7,0,7.3,0,11c0,2.5-0.1,2.5-2.6,2.6c-0.2,0-0.4,0-0.6,0c-2.4,0-2.5-0.1-2.5-2.4
	C135.7,184.6,135.7,179.8,135.7,175C135.7,175,135.7,175,135.7,175z"/>
<path fill="#0253A4" d="M158.4,175.5c0,4.6,0,9.3,0,13.9c0,2.4-0.1,2.4-2.4,2.5c-2.9,0.1-3.4-0.3-3.4-3.3c0-8.7,0-17.4,0-26.1
	c0-0.2,0-0.4,0-0.6c0.2-3.1,2-4.2,4.9-3.2c1,0.4,0.9,1.2,0.9,1.9c0,3.2,0,6.4,0.1,9.6C158.4,172,158.4,173.7,158.4,175.5z"/>
<path fill="#0253A4" d="M175.2,175.5c0,4.7,0,9.5,0,14.2c0,2-0.7,2.5-3.3,2.5c-1.4,0-1.9-0.7-2.1-2.1c-0.6-7.1-0.6-14.1,0-21.1
	c0.2-2.3,0.1-4.6,0.1-7c0-3,0.3-3.6,2.1-3.6c2.8,0,3.2,0.4,3.2,3.4C175.2,166.3,175.2,170.9,175.2,175.5
	C175.2,175.5,175.2,175.5,175.2,175.5z"/>
<path fill="#0253A4" d="M289.1,106.4c0,3.3,0,6.6,0,9.9c0,1.8,0.1,3.7-0.4,5.5c-0.2,0.8,0.3,2-0.6,2.4c-1.3,0.5-2.7,0.3-4,0.1
	c-0.6-0.1-0.9-0.8-1-1.3c-0.1-0.9-0.2-1.7-0.2-2.6c0-8.3,0-16.7,0-25c0-0.4,0-0.8,0-1.2c0.2-3.4,1.6-4.4,4.9-3.4
	c1.1,0.3,1.3,1.1,1.3,2c0,1.7,0,3.5,0,5.2C289.1,100.7,289.1,103.5,289.1,106.4z"/>
<path fill="#0253A4" d="M322.8,107.4c0,4.7,0,9.5,0,14.2c0,1,0.2,2.1-1,2.5c-1.4,0.4-2.9,0.4-4.3,0c-0.2-0.1-0.4-0.4-0.4-0.7
	c-0.1-0.4-0.1-0.8-0.1-1.2c0.2-5.9-0.8-11.8-0.5-17.7c0.2-4.1,0.6-8.1,0.5-12.2c0-1.2,0.5-1.8,1.7-1.8c0.3,0,0.6,0,0.9,0
	c3.2,0,3.2,0,3.2,3.1C322.9,98.3,322.8,102.9,322.8,107.4C322.8,107.4,322.8,107.4,322.8,107.4z"/>
<path fill="#0253A4" d="M305.5,107.6c0,4.7,0,9.5,0,14.2c0,2.4-0.1,2.5-2.4,2.5c-2.8,0.1-2.7,0-3-2.9c-0.7-7.3-0.3-14.5-0.5-21.8
	c0-2.5,0.7-5,0.5-7.5c-0.1-1.1,0.5-1.6,1.6-1.6c0.5,0,1,0,1.5,0c2.1,0.1,2.2,0.1,2.2,2.4C305.5,97.9,305.5,102.7,305.5,107.6z"/>
<path fill="#0253A4" d="M282.8,175.1c0-4.3,0-8.5,0-12.8c0-0.8,0-1.6,0.2-2.3c0.3-1.3,1-2.1,2.5-1.7c0.4,0.1,0.8,0.2,1.1,0.2
	c2.2,0.4,2.4,0.4,2.4,2.7c0,5.1,0,10.3,0,15.4c0,4.5-0.1,9.1-0.2,13.6c0,0.5-0.1,0.9-0.5,1.3c-1.2,1.3-4.9,0.5-5.4-1.2
	c-0.2-0.8-0.2-1.7-0.2-2.6C282.8,183.6,282.8,179.4,282.8,175.1C282.8,175.1,282.8,175.1,282.8,175.1z"/>
<path fill="#0253A4" d="M322.8,175.6c0,4.7,0,9.5,0,14.2c0,2-0.8,2.5-3.3,2.5c-2,0-2.3-0.3-2.5-2.3c-0.6-6.2-0.7-12.4-0.4-18.6
	c0.2-3.7,0.3-7.3,0.4-11c0-1.4,0.7-1.9,2-1.8c0.7,0,1.4,0,2,0c1.2,0,1.7,0.7,1.8,1.8c0,0.7,0,1.4,0,2
	C322.8,166.9,322.8,171.2,322.8,175.6C322.8,175.6,322.8,175.6,322.8,175.6z"/>
<path fill="#0253A4" d="M305.5,175.2c0,4.8,0,9.7,0,14.5c0,2-0.1,2-2.1,2.2c-0.5,0.1-1,0.1-1.4,0.2c-1.1,0.2-1.7-0.2-1.8-1.3
	c-0.2-1.7-0.5-3.4-0.5-5.2c-0.1-7.3,0-14.7,0-22c0-1.2,0.3-2.3,0.4-3.4c0.2-1.3,0.8-1.5,1.9-1.6c3.2-0.2,3.4,0,3.4,3.2
	C305.5,166.3,305.5,170.7,305.5,175.2C305.5,175.2,305.5,175.2,305.5,175.2z"/>
<path fill="#0253A4" d="M68.8,175.3c0,4.7,0,9.5,0,14.2c0,2.2-0.1,2.2-2.3,2.3c-0.1,0-0.2,0-0.3,0c-3.2,0.1-3.6-0.2-3.7-3.3
	c-0.1-7.9,0-15.8,0-23.8c0-1.3,0.5-2.6,0.5-4c0-1.9,0.9-2.6,2.9-2.6c2,0,2.9,0.7,2.9,2.6C68.8,165.7,68.7,170.5,68.8,175.3
	C68.8,175.3,68.8,175.3,68.8,175.3z"/>
<path fill="#0253A4" d="M102.5,175.5c0,4.7,0,9.3,0,14c0,2.4,0,2.4-2.5,2.4c-3.3,0.1-3.4,0.1-3.4-3c0-9.1,0-18.2,0-27.3
	c0-0.9-0.4-2.2,0.6-2.7c1.4-0.6,3.1-0.5,4.6,0c0.9,0.3,0.6,1.3,0.6,2.1C102.5,165.8,102.5,170.6,102.5,175.5
	C102.5,175.5,102.5,175.5,102.5,175.5z"/>
<path fill="#0253A4" d="M85.6,173.5c0,3.4-0.1,6.8,0,10.2c0.1,2.3-0.5,4.6-0.5,6.9c0,0.8-0.4,1.3-1.2,1.3c-0.6,0-1.2,0.1-1.7,0
	c-2.2,0-2.3-0.1-2.3-2.3c-0.1-4,0-8.1,0-12.1c0-5.5,0-11,0-16.5c0-2.4,0.7-2.9,3-2.5c2.8,0.4,2.8,0.4,2.8,3.2
	C85.6,165.5,85.6,169.5,85.6,173.5z"/>
<path fill="#0253A4" d="M282.8,39.7c0-4.3,0-8.5,0-12.8c0-0.5,0-1,0-1.5c0-1.1,0-2.3,1.2-2.7c1.3-0.4,2.7-0.3,3.9,0.4
	c0.5,0.3,0.6,0.7,0.6,1.2c0.2,1.2,0.5,2.5,0.5,3.7c0,7.8,0,15.7,0,23.5c0,0.8,0,1.6-0.1,2.3c-0.4,2.4-3.2,3.6-5.2,2.3
	c-1-0.6-0.9-1.6-0.9-2.6C282.8,49,282.8,44.4,282.8,39.7C282.8,39.7,282.8,39.7,282.8,39.7z"/>
<path fill="#0253A4" d="M322.8,39.5c0,4.6,0,9.3,0,13.9c0,1,0.3,2.4-1,2.7c-1.4,0.4-2.9,0.4-4.3-0.1c-0.4-0.1-0.5-0.6-0.5-1
	c0-0.7,0-1.4,0-2c-0.2-8.6,0.3-17.2-0.3-25.8c-0.1-0.8,0.3-1.5,0.3-2.3c0-1.1,0.3-1.9,1.4-2.2c1.5-0.3,2.9,0,4.1,0.8
	c0.6,0.4,0.3,1.3,0.3,1.9C322.8,30.2,322.8,34.9,322.8,39.5C322.8,39.5,322.8,39.5,322.8,39.5z"/>
<path fill="#0253A4" d="M305.5,39.6c0,4.7,0,9.5,0,14.2c0,2.4-0.1,2.5-2.4,2.5c-2.9,0.1-2.8,0-3-2.8c-0.6-7.8-0.4-15.6-0.5-23.5
	c0-2,0.5-3.8,0.5-5.8c0-1.2,0.8-1.6,1.9-1.7c2.5-0.1,3.4,0.7,3.4,3.3C305.5,30.5,305.5,35.1,305.5,39.6
	C305.5,39.6,305.5,39.6,305.5,39.6z"/>
<path fill="#0253A4" d="M379.8,173.8c0,3.7,0,7.4,0,11c0,1.4,0.1,2.7-0.4,4c-0.3,0.9,0.3,2.1-0.6,2.7c-1.1,0.6-2.5,0.2-3.7,0.3
	c-0.7,0-1-0.5-1.2-1.1c-0.3-1-0.4-2.1-0.4-3.2c0-8.6,0-17.2,0-25.9c0-2.8,0.8-3.5,3.6-3.6c1.9,0,2.6,0.6,2.6,2.6
	C379.8,165.1,379.8,169.5,379.8,173.8C379.8,173.8,379.8,173.8,379.8,173.8z"/>
<path fill="#0253A4" d="M356.7,175.5c0-4.5,0-8.9,0-13.4c0-3.6,1.1-4.3,4.5-3.6c1.7,0.3,1.8,1.4,1.8,2.7c0,5.3,0,10.6,0,16
	c0,4.2,0,8.5-0.4,12.7c-0.1,1.3-0.5,1.8-1.9,1.9c-3.9,0.2-3.9,0.2-3.9-3.6C356.6,184,356.7,179.8,356.7,175.5z"/>
<path fill="#0253A4" d="M396.6,175c0,4.7,0,9.5,0,14.2c0,1,0.2,2.2-1,2.4c-1.4,0.3-2.9,0.5-4.3-0.2c-0.7-0.4-0.5-1.4-0.5-2.1
	c0.3-4.9-0.5-9.8-0.3-14.7c0.2-4.4,0.6-8.8,0.3-13.3c-0.2-2.7,0-2.8,2.7-2.8c0.3,0,0.6,0,0.9,0c2,0.1,2.2,0.2,2.2,2.2
	C396.7,165.5,396.7,170.3,396.6,175C396.7,175,396.7,175,396.6,175z"/>
<path fill="#0253A4" d="M195.5,303.2c-1.4,2.8-1.7,5.4,0.6,7.6c2.2,2.2,4.7,1.7,7.3,0.7c1.6,3.3,0.3,8.3-3,11.2
	c-4,3.4-9.7,3.7-14,0.7c-4.1-2.8-5.8-8.4-4.1-13.2C183.8,306.3,188.4,301.8,195.5,303.2z"/>
</svg>
