<svg width="80" height="92" viewBox="0 0 80 92" fill="none" xmlns="http://www.w3.org/2000/svg">
<path d="M41.1 50.3C40.8 50.6 41 51 40.9 51.3C40.9 54.1 40.9 56.9001 40.9 59.7001C36.7 59.7001 32.5 59.7001 28.3 59.7001C22.3 59.0001 18 54.1 18 48.3C18 42.5 22.4 37.7 28.1 37C28.2 37 28.3 36.9 28.4 36.9C32.6 36.9 36.8 36.9 40.9 36.8V36.9C40.9 39.8 40.9 42.7 40.9 45.6C40.9 45.8 40.8 46.1 41 46.3C40.9 47.7 41 49 41.1 50.3Z" fill="#765EA5"/>
<path d="M40.9 14.1C45 14.1 49.1001 13.9 53.2001 14.1C58.9001 14.4 63.4 19.1 63.8 24.9C64.1 30.5 60.2 35.6 54.6 36.7C54.2 36.8 53.8001 36.8 53.4001 36.9C52.9001 36.9 52.4001 36.9 51.9001 36.9C51.7001 36.9 51.5001 36.9 51.2001 36.9C47.7001 36.8 44.3 36.8 40.8 36.9V36.8C40.9 29.2 40.9 21.6 40.9 14.1Z" fill="#ED7164"/>
<path d="M40.9 14.1C40.9 21.7 40.9 29.3 40.9 36.8C36.7 36.8 32.5 36.8 28.4 36.9C23.8 36.2 20.4 33.7 18.8 29.3C16.1 21.9 21.6 14.1 29.4 14C33.2 14 37.1 14.1 40.9 14.1Z" fill="#E95025"/>
<path d="M28.2 59.8C32.4 59.8 36.6 59.8 40.8 59.8C40.8 64 41.1 68.1 40.8 72.3C40.3 79.9 32.4 84.7001 25.3 81.9001C20.3 79.9001 17.5 75.1001 18.1 69.7001C18.7 64.7001 22.7 60.7001 27.9 59.9001C28.1 59.9001 28.2 59.8 28.2 59.8Z" fill="#4CB37D"/>
<path d="M51.9999 36.9C52.4999 36.9 52.9999 36.9 53.4999 36.9C56.1999 37.3 58.5999 38.3 60.5999 40.3C63.9999 43.7 64.8999 48.9 62.8999 53.2C60.7999 57.6 56.2999 60.2 51.2999 59.7C46.6999 59.3 42.5999 55.8 41.3999 51.1C41.2999 50.8 41.2999 50.6 41.1999 50.3C41.0999 49 40.9999 47.6 41.1999 46.3C41.2999 46 41.2999 45.7 41.3999 45.4C42.5999 40.6 47.1999 36.9 51.9999 36.9Z" fill="#45B6E9"/>
</svg>
