<?xml version="1.0" encoding="utf-8"?>
<!-- Generator: Adobe Illustrator 25.4.1, SVG Export Plug-In . SVG Version: 6.00 Build 0)  -->
<svg version="1.1" baseProfile="tiny" id="Capa_1" xmlns="http://www.w3.org/2000/svg" xmlns:xlink="http://www.w3.org/1999/xlink"
	 x="0px" y="0px" viewBox="0 0 405.1 415.8" overflow="visible" xml:space="preserve">
<path fill="#F62D1F" d="M244.7,370.8c-14.9,7.6-29.1,16.5-43.6,24.8c-10.8,6.1-21.6,12.4-32.3,18.6c-3.9,2.3-7.2,2-11.1-0.3
	c-37.6-21.8-75.2-43.4-112.9-65.1c-0.3-0.2-0.6-0.1-1-0.2c-1.8-1.7-3.8-3-6.1-3.7c-10.5-6.1-20.8-12.3-31.4-18.2
	C1.7,324.3,0,321.1,0,316c0.1-87.3,0.1-174.5,0-261.8c0-4.9,1.8-8,6.1-10.4C30.5,30,54.8,16,79.1,1.8c4.3-2.5,7.8-2.4,12,0
	c24.1,14,48.3,28,72.6,41.7c4.7,2.6,6.4,5.9,6.4,11.2c-0.2,51.1-0.1,102.3-0.1,153.4c0,3.1-1.4,7.5,1,8.9c2.3,1.3,5.4-2.3,8.1-3.8
	c17.1-9.8,34.2-19.8,51.5-29.5c3.7-2,4.6-4.5,4.6-8.3c-0.1-25.5,0-51-0.1-76.4c0-5,1.5-8.3,6.1-10.8c24.6-13.9,49-28,73.4-42.2
	c3.9-2.3,7.3-2.2,11.2,0.1c24.5,14.3,49.1,28.5,73.8,42.6c3.8,2.1,5.6,4.8,5.6,9.1c-0.1,28-0.1,56-0.1,83.9c0,4.8-1.7,8.3-6.2,10.8
	c-10.9,6-21.6,12.4-32.4,18.7c-0.6-0.1-0.9,0.1-1,0.7c0,0,0,0,0,0c-2.9,1.3-5.9,2.5-8.1,4.9c0,0,0.1-0.1,0.1-0.1
	c-5.7,2.3-10.9,5.6-15.9,9c-0.6,0.4-1.3,0.8-1.9,1.2c-1.4,0.5-2.8,0.8-4.1,1.5c-5.8,3.2-9.4,6.7-9.1,14.8
	c0.8,24.4,0.2,48.9,0.4,73.3c0.1,5.1-1.8,8-6,10.4c-6.6,3.7-13.5,6.9-19.5,11.7l0.3,0.1c0,0-0.2-0.2-0.2-0.2
	c-2.3,0.4-4.1,1.6-5.8,3.2c-12.3,6.7-24.7,13.3-36.4,21.1c-1.8,1.2-3.7,2.2-5.5,3.2C250.1,366.7,247.4,368.8,244.7,370.8z
	 M156.5,75.9c0-0.7-0.1-1.4-0.1-2c0.7-3.5,0.5-6.9,0.2-11.1c-2.5,1.6-4.4,2.9-6.3,4.1c-3.6,2-7.2,4.1-10.8,6.1
	c-4.3,2.3-9.5,3.1-13,7c-10.6,6.2-21.1,12.4-31.8,18.4c-2.2,1.2-3.1,2.4-3.1,4.9c0.1,52.1,0,104.1,0,156.2c0,2.8,0.3,4.1,3.5,2.2
	c10.1-6,20.4-11.8,30.6-17.7c10-5.8,19.9-11.6,29.9-17.4c0.5,0,0.9,0,0.8-0.7c0.2-1.3,0.5-2.6,0.5-3.9c0-45,0-90.1,0-135.1
	c0-1.3-0.2-2.6-0.3-4C157,80.5,157.1,78.2,156.5,75.9z M14.3,63.2c-1.1,1.3-0.7,2.5-0.7,3.6c0,81.6,0,163.2-0.1,244.8
	c0,2.8,0.8,4.4,3.3,5.9c45.1,25.8,90.2,51.8,135.3,77.7c4.7,2.7,4.8,2.6,4.8-2.6c0-21.7-0.1-43.3,0-65c0-3.3-1.2-5.1-3.9-6.6
	c-22.6-12.7-45-25.6-67.7-38.1c-4.9-2.7-6.9-6-6.8-11.4c0.1-29.8,0-59.6,0-89.4c0-25.7,0-51.3,0.1-77c0-3.4-0.5-5.6-4.1-7.5
	C63.7,92,53.2,85.6,42.6,79.5C33.1,74,23.7,68.6,14.3,63.2z M313.4,241.7c-2,1-3.2,1.5-4.4,2.2c-8.6,4.9-17.3,9.9-25.9,14.8
	c-36.7,21-73.4,42-110.2,62.8c-2.7,1.5-3.2,3.1-3.2,5.8c0.1,21.6,0.1,43.3,0.1,64.9c0,5.8,0,5.8,5.3,2.8c42.3-24.3,84.4-49,127-72.8
	c8.7-4.9,12-9.9,11.6-19.9C312.8,282.5,313.4,262.6,313.4,241.7z M306.1,230.2c-1-0.9-1.3-1.2-1.7-1.5
	c-20.1-11.6-40.3-23.1-60.4-34.9c-2.5-1.5-4-0.4-5.8,0.7c-30.4,17.5-60.8,35-91.1,52.4c-15,8.6-29.9,17.2-44.9,25.8
	c-2.6,1.5-3.7,2.3-0.1,4.3c19,10.5,37.9,21.2,56.7,32.1c3.3,1.9,5.7,1.9,9,0c29.9-17.2,59.9-34.3,89.9-51.4
	C273.7,248.7,289.7,239.6,306.1,230.2z M149.7,51.4c-1-0.8-1.6-1.4-2.3-1.8c-19.8-11.4-39.7-22.8-59.5-34.4
	c-2.5-1.4-4.3-0.6-6.4,0.6c-10.3,6-20.7,11.9-31.1,17.9c-9.9,5.7-19.8,11.4-30.2,17.5c21.6,12.4,42.6,24.5,63.5,36.6
	c1.4,0.8,2.3,0.4,3.5-0.3c8.4-5,16.8-9.8,25.2-14.6C124.8,65.8,137.1,58.7,149.7,51.4z M384.9,95.5c-20.6-11.8-40.4-23.2-60.2-34.7
	c-3.2-1.8-5.6-2.8-9.7-0.2c-12.6,8.1-25.8,15.1-38.7,22.5c-6.9,4-13.8,8.1-21.2,12.4c17.2,9.9,33.5,19.4,49.9,28.8
	c4.9,2.8,9.8,7.6,14.7,7.7c4.9,0,9.9-4.7,14.8-7.5C351.1,115.1,367.6,105.5,384.9,95.5z M326.6,217.4c1.8,0.5,2.8-0.4,3.7-0.9
	c19.6-11.2,39.1-22.5,58.7-33.7c2.6-1.5,2.6-3.4,2.6-5.8c-0.1-19.6,0-39.3,0-58.9c0-3.3,0-6.5,0-10.3c-1.2,0.4-1.8,0.6-2.3,0.9
	c-20.2,11.6-40.3,23.2-60.5,34.7c-1.7,1-2.2,2.2-2.2,4.1C326.6,170.6,326.6,193.9,326.6,217.4z M313.4,181.3c0-11,0-22,0-32.9
	c0-2.3-0.2-4.1-2.5-5.4c-19.6-11.2-39.1-22.5-58.7-33.8c-2.8-1.6-4-1.3-4,2.3c0.1,22.1,0,44.3,0,66.4c0,2.2,0.8,3.7,2.8,4.8
	c19.6,11.2,39.1,22.5,58.6,33.8c2.7,1.5,4,1.7,3.9-2.2C313.3,203.3,313.4,192.3,313.4,181.3z"/>
<path fill="#FCFBFA" d="M365.4,211.8c0.1-0.6,0.4-0.8,1-0.7C366.1,211.3,365.8,211.5,365.4,211.8z"/>
<path fill="#FEFDFD" d="M14.3,63.2c9.4,5.4,18.9,10.8,28.3,16.2C53.2,85.6,63.7,92,74.5,97.7c3.6,1.9,4.1,4.1,4.1,7.5
	c-0.1,25.7-0.1,51.3-0.1,77c0,29.8,0,59.6,0,89.4c0,5.3,2,8.7,6.8,11.4c22.7,12.5,45.1,25.4,67.7,38.1c2.7,1.5,3.9,3.3,3.9,6.6
	c-0.2,21.7,0,43.3,0,65c0,5.2-0.1,5.3-4.8,2.6c-45.1-25.9-90.1-51.9-135.3-77.7c-2.6-1.5-3.3-3.1-3.3-5.9
	c0.1-81.6,0-163.2,0.1-244.8C13.5,65.7,13.2,64.5,14.3,63.2z"/>
<path fill="#FCFBFA" d="M313.4,241.7c0,20.8-0.6,40.8,0.3,60.7c0.4,10-2.9,15-11.6,19.9c-42.6,23.8-84.7,48.4-127,72.8
	c-5.3,3-5.3,3-5.3-2.8c0-21.6,0-43.3-0.1-64.9c0-2.7,0.5-4.3,3.2-5.8c36.8-20.8,73.5-41.9,110.2-62.8c8.6-4.9,17.3-9.9,25.9-14.8
	C310.2,243.3,311.3,242.8,313.4,241.7z"/>
<path fill="#FCFBFA" d="M306.1,230.2c-16.4,9.4-32.4,18.5-48.4,27.6c-30,17.1-60,34.1-89.9,51.4c-3.3,1.9-5.7,1.9-9,0
	c-18.8-10.9-37.7-21.6-56.7-32.1c-3.6-2-2.5-2.8,0.1-4.3c15-8.6,29.9-17.2,44.9-25.8c30.4-17.5,60.8-34.9,91.1-52.4
	c1.9-1.1,3.3-2.2,5.8-0.7c20.1,11.7,40.3,23.3,60.4,34.9C304.8,229,305.1,229.4,306.1,230.2z"/>
<path fill="#FEFDFD" d="M156.5,82.9c0.1,1.3,0.3,2.6,0.3,4c0,45,0,90.1,0,135.1c0,1.3-0.3,2.6-0.5,3.9c-0.3,0.2-0.5,0.5-0.8,0.7
	c-10,5.8-19.9,11.6-29.9,17.4c-10.2,5.9-20.5,11.7-30.6,17.7c-3.2,1.9-3.5,0.6-3.5-2.2c0-52.1,0.1-104.1,0-156.2
	c0-2.5,0.9-3.7,3.1-4.9c10.7-6,21.2-12.2,31.8-18.4c3.6,1.2,10-2.2,13-7c3.6-2,7.2-4.1,10.8-6.1c3.6-0.4,6,0.6,5.3,4.9
	c-0.1,0.7,0.5,1.4,0.8,2.1c0,0.7,0.1,1.4,0.1,2C155,78.2,155,80.5,156.5,82.9z"/>
<path fill="#FCFBFA" d="M149.7,51.4c-12.6,7.3-24.9,14.4-37.2,21.5c-8.4,4.9-16.9,9.7-25.2,14.6c-1.3,0.8-2.2,1.1-3.5,0.3
	C62.8,75.7,41.8,63.7,20.2,51.3c10.5-6.1,20.4-11.8,30.2-17.5c10.3-6,20.7-11.9,31.1-17.9c2.1-1.2,3.9-2.1,6.4-0.6
	c19.8,11.5,39.7,22.9,59.5,34.4C148.1,50,148.7,50.6,149.7,51.4z"/>
<path fill="#FCFBFA" d="M384.9,95.5c-17.3,10-33.8,19.6-50.4,29.1c-4.9,2.8-9.9,7.5-14.8,7.5c-4.9,0-9.8-4.9-14.7-7.7
	c-16.4-9.4-32.8-18.9-49.9-28.8c7.4-4.3,14.3-8.4,21.2-12.4c12.9-7.5,26.2-14.5,38.7-22.5c4.1-2.6,6.5-1.7,9.7,0.2
	C344.5,72.3,364.3,83.7,384.9,95.5z"/>
<path fill="#FCFBFA" d="M326.6,217.4c0-23.5,0-46.8,0-70.1c0-1.9,0.5-3.1,2.2-4.1c20.2-11.6,40.3-23.1,60.5-34.7
	c0.5-0.3,1.1-0.4,2.3-0.9c0,3.8,0,7,0,10.3c0,19.6,0,39.3,0,58.9c0,2.4,0,4.4-2.6,5.8c-19.6,11.2-39.2,22.5-58.7,33.7
	C329.3,217,328.4,217.8,326.6,217.4z"/>
<path fill="#FCFBFA" d="M313.4,181.3c0,11-0.1,22,0.1,32.9c0.1,3.9-1.2,3.7-3.9,2.2c-19.5-11.3-39.1-22.5-58.6-33.8
	c-2-1.1-2.8-2.6-2.8-4.8c0.1-22.1,0.1-44.3,0-66.4c0-3.6,1.2-3.9,4-2.3c19.5,11.3,39.1,22.6,58.7,33.8c2.3,1.3,2.5,3.1,2.5,5.4
	C313.4,159.4,313.4,170.4,313.4,181.3z"/>
<path fill="#FCFBFA" d="M139.6,72.9c-3,4.8-9.3,8.2-13,7C130.1,76.1,135.2,75.3,139.6,72.9z"/>
<path fill="#FCFBFA" d="M156.4,73.9c-0.3-0.7-0.9-1.5-0.8-2.1c0.7-4.3-1.7-5.3-5.3-4.9c1.9-1.2,3.7-2.4,6.3-4.1
	C157,66.9,157.1,70.4,156.4,73.9z"/>
<path fill="#FCFBFA" d="M156.5,82.9c-1.5-2.3-1.6-4.7,0-7C157.1,78.2,157,80.5,156.5,82.9z"/>
<path fill="#FCFBFA" d="M155.6,226.6c0.3-0.2,0.5-0.5,0.8-0.7C156.5,226.5,156.1,226.6,155.6,226.6z"/>
</svg>
