<?xml version="1.0" encoding="utf-8"?>
<!-- Generator: Adobe Illustrator 25.4.1, SVG Export Plug-In . SVG Version: 6.00 Build 0)  -->
<svg version="1.1" baseProfile="tiny" id="Capa_1" xmlns="http://www.w3.org/2000/svg" xmlns:xlink="http://www.w3.org/1999/xlink"
	 x="0px" y="0px" viewBox="0 0 499.8 513.3" overflow="visible" xml:space="preserve">
<path fill="#FEF9F8" d="M418,280.4c-12.1,4-15.9,11.9-15.3,25c1.3,28.2,0.2,56.6,0.5,84.9c0.1,6.7-2.4,10.5-8.2,13.8
	c-61.8,35.4-123.5,70.9-185,106.7c-6.1,3.5-10.9,3.5-16.9,0c-61.3-35.6-122.8-71-184.3-106.3c-6.4-3.6-8.8-7.8-8.8-15.1
	C0.2,283,0.3,176.8,0,70.5c0-8.9,2-14.9,10.5-18.3c3.5-1.4,6.5-4,9.8-6.1C45.5,31.7,70.9,17.6,95.9,2.8c6.6-3.9,11.7-3.7,18.3,0.1
	c28.8,17,57.8,33.7,87,50.2c6.4,3.6,9,7.9,8.8,15.2c-0.4,16.3,0.1,32.7,0.2,49c0,28.3,0,56.6,0,84.9c0,22,0,44.1,0,66.2
	c3.6,0,5.6-2.1,7.9-3.4c21.1-12.1,42.1-24.6,63.4-36.3c6.3-3.5,8.9-7.2,8.7-14.7c-0.5-30.2,0-60.4-0.4-90.7
	c-0.1-7.2,2.1-11.7,8.6-15.3c29.6-16.7,59-33.7,88.4-50.9c5.4-3.2,9.7-3.4,15.2-0.2c30.4,17.7,60.9,35,91.5,52.4
	c4.2,2.4,6.3,5.6,6.3,10.7c-0.1,35.2-0.2,70.4,0,105.6c0,6-2.9,8.9-7.5,11.6C467.5,251.6,442.8,266,418,280.4z M193.5,492.4
	c0-29.6-0.1-57.7,0.1-85.7c0.1-5.6-1.5-8.8-6.7-11.7c-26.9-14.8-53.4-30.3-80.3-45.1c-7.3-4-10.1-8.7-10-17
	c0.3-67.7,0.1-135.3,0.3-203c0-5.1-1.5-7.9-5.9-10.4C71.3,108.5,51.7,97,32,85.7c-4.9-2.8-9.9-5.6-15.7-8.9
	c-0.2,3.8-0.4,6.2-0.4,8.7c0,99,0,198-0.2,297c0,5.9,2.2,8.8,7.1,11.6c37.7,21.5,75.3,43.2,112.9,64.9
	C154.6,469.8,173.4,480.7,193.5,492.4z M120.7,339.8c26,14.7,50.6,28.4,75,42.6c4.4,2.6,7.4,2.6,11.9,0
	c54.9-31.6,109.9-62.9,164.8-94.4c1.9-1.1,4.7-1.5,5.5-4.7c-24.5-14.1-48.9-28.1-73.2-42.4c-4.6-2.7-7.9-2.8-12.6-0.1
	c-36.3,21.2-72.8,42.1-109.2,63.1C162.5,315.6,142.2,327.3,120.7,339.8z M209.5,492.5c58.9-34,116.4-67.1,173.8-100.2
	c2.8-1.6,3.7-3.7,3.7-6.7c-0.1-27.2-0.1-54.3,0-81.5c0-4.5-0.6-6.3-5.5-3.4c-55.8,32.1-111.8,64-167.7,95.9c-3,1.7-4.4,3.6-4.4,7.2
	C209.6,432.8,209.5,461.9,209.5,492.5z M193.5,78.1c-3.5-0.3-5.3,1.7-7.3,2.9c-22.3,12.7-44.5,25.7-66.9,38.3c-5,2.8-6.7,6-6.7,11.8
	c0.2,62.1,0.1,124.1,0.2,186.2c0,2.6-1,5.4,1.5,8.2c24.2-13.9,48.2-28,72.5-41.6c5.4-3,6.9-6.4,6.9-12.3
	c-0.2-61.8-0.1-123.6-0.1-185.4C193.5,83.4,193.5,80.8,193.5,78.1z M23.9,63c26.7,15.4,52.1,30,77.5,44.7c2.5,1.4,4.4,1.5,6.9,0.1
	c25.5-14.8,51-29.5,77.6-44.8c-26.8-15.5-52.6-30.4-78.5-45.3c-1.9-1.1-3.6-0.9-5.5,0.2C76.4,32.7,50.9,47.5,23.9,63z M314,117.8
	c26.6,15.3,51.9,29.9,77.2,44.7c3.6,2.1,6.1,0.8,9-0.9c19.8-11.5,39.7-22.9,59.5-34.4c5.1-2.9,10.1-5.9,16.1-9.5
	c-26.8-15.5-52.3-30.2-77.9-45c-2.2-1.3-4-1.2-6.1,0C366.3,87.6,340.8,102.3,314,117.8z M306.3,131.5c0,29.5,0,57.2,0,84.9
	c0,1.1,0.1,2.2,0,3.3c-0.6,4.3,2.5,5.7,5.4,7.3c22.8,13.1,45.5,26.1,68.2,39.4c5.4,3.2,7.4,3.2,7.3-3.9c-0.3-21.3-1.3-42.8,0.3-64
	c1.1-15.6-3.9-24.3-18-31.3C348.2,156.9,328.2,144.1,306.3,131.5z M483.8,131.3c-26.9,15.5-52,30.1-77.2,44.4
	c-3.8,2.1-3.6,5-3.6,8.3c0,26.6,0,53.2,0.1,79.9c0,1.7-1,3.9,2,5.4c24.8-14.3,49.9-28.9,75.1-43.2c3.3-1.9,3.8-4.3,3.7-7.5
	c-0.1-11.1,0-22.2,0-33.3C483.8,167.8,483.8,150.4,483.8,131.3z"/>
<path fill="#FE2C20" d="M193.5,492.4c-20.1-11.6-38.9-22.5-57.8-33.4C98.1,437.3,60.5,415.5,22.8,394c-4.9-2.8-7.1-5.7-7.1-11.6
	c0.2-99,0.1-198,0.2-297c0-2.4,0.2-4.9,0.4-8.7c5.8,3.3,10.8,6.1,15.7,8.9c19.7,11.3,39.2,22.7,59,33.8c4.4,2.5,5.9,5.2,5.9,10.4
	c-0.2,67.7,0,135.3-0.3,203c0,8.3,2.8,13.1,10,17c26.9,14.7,53.4,30.3,80.3,45.1c5.2,2.8,6.7,6,6.7,11.7
	C193.4,434.7,193.5,462.7,193.5,492.4z"/>
<path fill="#FE2C20" d="M120.7,339.8c21.5-12.4,41.8-24.2,62.2-35.9c36.4-21,72.9-41.9,109.2-63.1c4.7-2.8,8-2.6,12.6,0.1
	c24.3,14.3,48.7,28.3,73.2,42.4c-0.7,3.2-3.6,3.6-5.5,4.7c-54.9,31.5-110,62.8-164.8,94.4c-4.4,2.6-7.4,2.6-11.9,0
	C171.3,368.2,146.7,354.5,120.7,339.8z"/>
<path fill="#FE2C20" d="M209.5,492.5c0-30.6,0-59.7-0.1-88.8c0-3.5,1.4-5.5,4.4-7.2c55.9-31.9,111.9-63.9,167.7-95.9
	c4.9-2.8,5.5-1.1,5.5,3.4c-0.1,27.2-0.1,54.3,0,81.5c0,3-0.8,5.1-3.7,6.7C325.9,425.3,268.5,458.5,209.5,492.5z"/>
<path fill="#FE2C20" d="M193.5,78.1c0,2.7,0,5.4,0,8c0,61.8-0.1,123.6,0.1,185.4c0,5.9-1.5,9.3-6.9,12.3
	c-24.3,13.5-48.3,27.6-72.5,41.6c-2.4-2.8-1.5-5.6-1.5-8.2c-0.1-62.1,0-124.1-0.2-186.2c0-5.7,1.7-9,6.7-11.8
	c22.4-12.6,44.6-25.6,66.9-38.3C188.2,79.8,190,77.8,193.5,78.1z"/>
<path fill="#FE2C20" d="M23.9,63C50.9,47.5,76.4,32.7,102,17.9c1.8-1.1,3.6-1.3,5.5-0.2c25.8,14.9,51.6,29.8,78.5,45.3
	c-26.6,15.3-52.1,30-77.6,44.8c-2.5,1.4-4.4,1.3-6.9-0.1C76.1,93,50.7,78.4,23.9,63z"/>
<path fill="#FE2C20" d="M314,117.8c26.8-15.5,52.4-30.2,77.9-45c2.1-1.2,3.9-1.3,6.1,0c25.5,14.8,51.1,29.5,77.9,45
	c-6,3.5-11.1,6.5-16.1,9.5c-19.8,11.5-39.7,22.9-59.5,34.4c-3,1.7-5.4,3-9,0.9C365.9,147.7,340.5,133.1,314,117.8z"/>
<path fill="#FE2C20" d="M306.3,131.5c21.9,12.6,41.9,25.4,63.1,35.8c14.1,6.9,19.1,15.6,18,31.3c-1.5,21.2-0.6,42.7-0.3,64
	c0.1,7.2-1.9,7.1-7.3,3.9c-22.6-13.3-45.4-26.3-68.2-39.4c-2.9-1.7-6-3.1-5.4-7.3c0.2-1.1,0-2.2,0-3.3
	C306.3,188.7,306.3,161,306.3,131.5z"/>
<path fill="#FE2C20" d="M483.8,131.3c0,19.1,0,36.5,0,53.9c0,11.1,0,22.2,0,33.3c0,3.2-0.5,5.7-3.7,7.5
	c-25.2,14.3-50.2,28.9-75.1,43.2c-2.9-1.4-2-3.7-2-5.4c-0.1-26.6,0-53.2-0.1-79.9c0-3.3-0.2-6.2,3.6-8.3
	C431.8,161.4,456.8,146.9,483.8,131.3z"/>
</svg>
