<svg width="856" height="856" viewBox="0 0 856 856" fill="none" xmlns="http://www.w3.org/2000/svg">
<rect width="856" height="856" fill="white"/>
<g clip-path="url(#clip0_2092_8)">
<path d="M504.792 156.536C493.977 157.997 483.395 160.086 473.238 164.264C453.271 172.394 436.184 186.292 424.161 204.179C412.139 222.067 405.726 243.131 405.744 264.681C405.685 372.986 405.685 481.291 405.744 589.596C405.744 622.406 383.149 648.467 352.427 653.229C314.266 659.145 280.344 628.395 280.432 590.019C280.666 486.301 280.432 382.437 280.563 278.646C280.563 268.274 280.753 257.61 276.515 248.246C271.21 236.56 275.828 230.015 283.954 222.112C315.143 191.815 345.499 160.67 376.338 130.081C407.176 99.4914 450.087 99.4037 481.305 130.081C489.461 138.145 498.04 145.902 506.444 153.746L504.792 156.536Z" fill="#5FC4E6"/>
<path d="M350.118 700.676C399.591 693.153 431.964 668.041 447.135 622.186C451.022 610.5 451.914 598.244 451.914 585.929C451.914 478.89 451.914 371.856 451.914 264.827C451.914 234.237 472.478 209.52 502.103 203.735C516.132 200.985 530.681 203.161 543.29 209.896C555.9 216.63 565.796 227.509 571.307 240.694C574.708 249.415 576.328 258.728 576.071 268.084C575.964 369.962 575.92 471.839 575.94 573.716C575.94 588.325 577.401 602.714 582.604 616.416C584.27 620.799 583.452 623.355 580.28 626.51C546.037 660.606 512.29 695.169 477.695 728.928C449.722 756.202 406.46 755.413 378.384 728.198C369.381 719.491 360.436 710.741 350.118 700.676Z" fill="#5A595B"/>
<path d="M622.767 274.132C627.02 275.111 628.613 278.106 630.849 280.282C662.311 311.69 693.73 343.141 725.104 374.636C756.834 406.497 756.995 449.459 725.455 481.13C693.632 513.102 661.761 545.011 629.841 576.857C627.912 578.771 626.567 581.663 622.767 581.999V274.132Z" fill="#1784C7"/>
<path d="M233.692 581.926C230.199 581.167 228.752 578.45 226.808 576.507C194.898 544.641 163.037 512.742 131.224 480.809C100.532 449.927 100.283 406.628 130.946 375.732C162.925 343.487 195 311.349 227.174 279.318C228.942 277.565 230.842 275.929 233.692 273.299V581.926Z" fill="#1583C6"/>
</g>
<defs>
<clipPath id="clip0_2092_8">
<rect width="641" height="642" fill="white" transform="translate(108 107)"/>
</clipPath>
</defs>
</svg>
