
<svg version="1.1" baseProfile="tiny" id="Capa_1" xmlns="http://www.w3.org/2000/svg" xmlns:xlink="http://www.w3.org/1999/xlink"
	 x="0px" y="0px" viewBox="0 0 1534.9 831.9" overflow="visible" xml:space="preserve" fill="#fff">
<path d="M754.8,831.9c-30.9-0.2-73.8-1.9-116.6-5.7c-74.7-6.6-148.4-18.8-220.8-38.6C336,765.5,258,735.1,186.2,690.3
	c-47.5-29.6-90.5-64.6-125.2-109c-28.5-36.5-48.9-76.8-57.1-122.7c-10-56.2-0.4-109.3,25.8-159.6c22.7-43.7,54.9-79.6,92.3-111
	c54.6-45.8,116.5-79.1,182.2-105.8C372,54.6,442.3,35.5,514.3,22.3c48.9-9,98.3-15,148-18.5c46.5-3.3,93.1-4.5,139.8-3.4
	c42.1,1,84.1,3.8,126,8.4c85.5,9.5,169.4,26.6,251,54.2c69,23.3,134.7,53.5,194.7,95.1c37.4,25.9,71.4,55.7,99.5,91.7
	c28.8,36.9,49.6,77.5,57.8,124c9.9,56,0.3,108.9-25.9,159.1c-23.7,45.4-57.4,82.3-96.6,114.6c-39.9,32.9-83.9,59.2-130.5,81.4
	c-59.3,28.3-121.2,49.2-184.9,65.1c-45.1,11.2-90.7,19.6-136.7,25.8C893.6,828.1,830.3,832,754.8,831.9z M254.9,608
	c27,0,53.3-0.1,79.6,0.1c4.4,0,5.5-1.6,6.1-5.4c4.9-28.9,10.1-57.7,15-86.5c0.6-3.4,1.7-4.3,5-4.3c16.8,0.2,33.6,0.1,50.4,0.1
	c28.2-0.1,56.2-1.6,83.8-8.1c27.4-6.4,52.7-17.4,71.4-39.2c28.7-33.5,40.9-73.2,38.9-116.9c-1.2-25.8-12-47.9-32-64.9
	c-22.1-18.8-48.5-26.3-76.7-26.7c-57.6-0.6-115.2-0.2-172.8-0.4c-3.3,0-4.2,1.3-4.7,4.1c-5,27.7-10.1,55.3-15.2,82.9
	c-9.8,53.2-19.6,106.3-29.4,159.5C268,537.4,261.5,572.4,254.9,608z M1083.6,256.1C1083.6,256.1,1083.6,256,1083.6,256.1
	c-29.3-0.1-58.6,0-87.9-0.2c-3.2,0-4.7,0.6-5.3,4c-3.3,18.7-6.7,37.3-10.2,56c-9.8,53.3-19.6,106.6-29.5,160
	c-7.8,42.5-15.6,85.1-23.6,127.6c-0.7,3.7-0.2,4.7,3.8,4.7c25.1-0.2,50.3-0.2,75.4,0c3.9,0,5-1.3,5.6-4.8c5-29,10.2-58,15.1-87
	c0.6-3.8,2.1-4.4,5.5-4.4c16.6,0.2,33.3,0.1,49.9,0.1c28.2-0.1,56.2-1.6,83.8-8.1c27.4-6.4,52.7-17.4,71.4-39.2
	c28.7-33.5,41.4-73.2,38.9-116.8c-2.1-37.2-21.7-64.2-55.8-80.1c-17-7.9-35.1-11.4-53.7-11.6
	C1139.2,255.8,1111.4,256.1,1083.6,256.1z M857.3,512c12.3,0,24.7-0.4,37,0.2c5.1,0.2,6.3-1.8,7.2-6.1
	c9.1-42.4,18.3-84.8,27.6-127.3c3.7-16.9,7.6-33.8,7.3-51.3c-0.6-32.9-16.1-53.8-47.5-63.5c-20.6-6.4-41.8-7.8-63.2-7.9
	c-25.3-0.2-50.6-0.2-75.9,0c-4,0-4.6-1-3.8-4.7c8.4-39.7,16.5-79.5,25-119.1c0.9-4.1-0.3-4.3-3.7-4.3c-24.8,0.1-49.6,0.2-74.4-0.1
	c-4.5-0.1-5.4,1.8-6.2,5.4c-13.5,65-27.1,129.9-40.6,194.9c-12.4,59.6-24.8,119.2-37.4,178.7c-0.8,3.8-0.8,5.3,4,5.2
	c24.6-0.3,49.3-0.2,73.9,0c3.9,0,5.3-1,6.1-4.9c12.7-61,25.7-122.1,38.5-183.1c0.7-3.4,1.9-4.2,5.2-4.1c22.6,0.2,45.3,0,67.9,0.2
	c7.5,0,14.9,1,22.2,2.8c13.3,3.4,18.9,9.5,20.7,22.9c0.3,2.6,0.3,5.3,0.2,8c-0.4,12.7-3.8,25-6.5,37.3
	c-8.4,38.9-16.8,77.7-25.3,116.5c-0.8,3.6,0.1,4.5,3.7,4.4C832,511.9,844.6,512,857.3,512z"/>
<path d="M368.2,448c5.5-28.7,10.9-57.2,16.3-85.6c2.5-13.3,5-26.6,7.3-40c0.3-1.5,0.3-2.5,2.1-2.4c29.9,0.9,59.9-2.1,89.7,2.3
	c5.6,0.8,11,2.7,16.1,5.2c13.8,6.7,21.4,17.8,21.9,33.1c0.6,16.6-2.4,32.7-9.3,47.9c-9.7,21.3-27.1,32.4-49.6,36.6
	c-22.7,4.3-45.7,2.6-68.6,2.9C385.6,448.1,376.9,448,368.2,448z"/>
<path d="M1039.9,448c5.5-30.2,11-60,16.5-89.8c2.2-12,4.8-24,6.9-36c0.4-2.2,1.4-2.2,2.9-2.2c27.1,0.5,54.3-1.3,81.3,1.1
	c11.5,1,22.6,4.2,31.9,11.5c8.2,6.4,12.9,15.1,13.5,25.2c1.2,20.1-2.4,39.4-12.5,57c-10.2,17.7-26.4,26.5-45.9,30.2
	c-26.4,5-53,2.4-79.6,3C1050,448.1,1045,448,1039.9,448z"/>
</svg>
