<?xml version="1.0" encoding="utf-8"?>
<!-- Generator: Adobe Illustrator 25.4.1, SVG Export Plug-In . SVG Version: 6.00 Build 0)  -->
<svg version="1.1" baseProfile="tiny" id="Capa_1" xmlns="http://www.w3.org/2000/svg" xmlns:xlink="http://www.w3.org/1999/xlink"
	 x="0px" y="0px" viewBox="0 0 431.8 444.8" overflow="visible" xml:space="preserve">
<path fill="#050505" d="M240.9,444.8c0.8-1.9-0.7-1.7-1.8-2.1c-13.5-5.2-22.3-15-27.8-28.1c-6.5-15.4-9.6-31.6-10.5-48.3
	c-0.5-10-1.2-19.9-1-29.9c0.1-3.4-0.7-3.7-3.9-2.6c-17.1,6.1-34.5,5.5-51.8,0.6c-7.6-2.2-14.3-6-19.7-11.9
	c-17.7,13.7-35.6,11.7-49.3,2.1c-7.8-5.5-14-12.7-19.2-20.7c-14.5-22.1-23.3-46.6-31.2-71.6C14.7,200.9,7.4,168.8,2,136.4
	c-0.3-1.8,1.6-4.7-2-5.4c0-11.7,0-23.3,0-35c1.2-0.7,1.8-1.7,2-3.2c0.5-4.3,1.1-8.5,2-12.7c4.8-22.7,15.2-42,34.2-55.9
	c17.8-13,38.4-17.6,59.9-18c23.7-0.5,46.7,4.2,69.3,11.3c2.6,0.8,4.6,0.8,7-0.5c20.4-11.1,42.3-13.1,65-11.6
	c8.9,0.6,17.8,3.7,26.9,0.7c5-1.6,10.4-1.9,15.5-3.4c2.7-0.8,6.2,0.8,8-2.7c14.3,0,28.7,0,43,0c-0.2,1.5,0.7,1.8,2.1,2
	c26.2,3.2,49.4,13.5,69.2,30.9c13.6,12,24.9,25.4,25.9,44.8c0.1,1.1,0.4,2,1.8,1.3c0,8,0,16,0,24c-3.3,4.7-2.3,10.4-3.1,15.6
	c-5.9,35.1-17.3,68.5-32.3,100.7c-5.7,12.3-12.1,24.2-19.2,36.5c8.6-0.5,16.3-2.2,24.1-3.4c11.1-1.6,21.7-0.8,28.5,10.1
	c0.6,0.9,1.2,1,2,0.5c0,7.3,0,14.7,0,22c-1.7-1.3-1.9,0.4-2.4,1.3c-3,5.1-7.1,9.1-11.6,12.8c-21.8,17.8-47.3,22.4-74.8,21.5
	c-1.3,17.8-1.5,35.9-5.1,53.7c-2.6,13-6.3,25.7-13.1,37.2c-10.5,17.6-26.9,26.8-46.3,31.4c-1,0.2-3.6-0.9-2.6,2.1
	C264.2,444.8,252.6,444.8,240.9,444.8z M209.7,310.2c0,5.7,0,10.2,0,14.6c0.2,23.3-0.6,46.7,4.5,69.6c4,18.2,13.8,32.6,33.3,37.9
	c11,3,21.7,1,32.4-1.6c23.1-5.7,38-19.5,42.7-43.2c3.3-16.4,5.2-33.1,7.3-49.7c1.2-9.5,2.2-19.1,3.3-28.7c0.2-1.9,0.4-3.9,3.6-3.2
	c13.4,3.1,26.8,1.5,40-1.4c15.4-3.4,28.9-10.6,39.6-22.5c3.3-3.7,4.9-8.1,2.8-12.8c-2.2-5.1-6.9-6-11.7-5.5
	c-6.1,0.7-12.1,1.9-18.2,2.7c-9.4,1.2-18.8,2.2-28.2-0.4c-3.6-1-5-1.8-2.4-5.9c20.8-32.4,36.7-67,47.7-103.9
	c6.8-22.8,11.9-45.9,11.4-69.9c-0.2-10.1-1.4-20.4-7.9-28.8c-9.8-12.8-21.8-23.3-36.2-30.7c-36-18.5-73.4-17.7-111.3-7.4
	c-2,0.5-3.8,1.5-6.2,0.9c-11.8-2.9-23.9-3.7-36.1-3.4c-15.6,0.4-30.1,4.2-43.5,12.2c-2.8,1.7-5,2-8.2,0.9
	C142,21.7,115.3,16,87.3,18.8c-46.4,4.7-69,35.3-73.3,76.5c-1.9,17.9-0.4,35.5,2.9,53c7.7,40.8,17.8,81,34.2,119.3
	c6.3,14.8,13.5,29.3,25.1,40.9c5.7,5.7,12.4,10,20.9,10.3c10.6,0.4,18.2-5.4,24.7-12.8c10.8-12.2,21.5-24.5,32.3-36.7
	c1.2-1.3,2.2-3.7,4.8-2.3c6.9,3.8,14.6,4.9,22.3,6.1c-5.3,9.2-12.3,15.3-22.9,17c-6,1-12,2.1-17.7,4.7c-4.9,2.2-9.3,4.8-9.7,10.8
	c-0.4,6,3.4,9.5,8.1,12.1c12,6.8,25.1,8.1,38.6,6.7C189.4,323.3,199.8,318.6,209.7,310.2z"/>
<path fill="#FDFDFD" d="M209.7,310.2c-9.8,8.3-20.3,13-32.1,14.2c-13.4,1.4-26.5,0-38.6-6.7c-4.6-2.6-8.5-6.1-8.1-12.1
	c0.4-6,4.8-8.6,9.7-10.8c5.6-2.5,11.7-3.7,17.7-4.7c10.6-1.7,17.6-7.7,22.9-17c-7.8-1.2-15.4-2.3-22.3-6.1c-2.6-1.4-3.6,1-4.8,2.3
	c-10.8,12.2-21.5,24.5-32.3,36.7c-6.6,7.4-14.1,13.2-24.7,12.8c-8.5-0.3-15.1-4.6-20.9-10.3c-11.6-11.6-18.8-26-25.1-40.9
	c-16.3-38.3-26.4-78.5-34.2-119.3c-3.3-17.6-4.8-35.1-2.9-53c4.3-41.2,27-71.8,73.3-76.5c28-2.8,54.8,2.9,81.1,11.3
	c3.2,1,5.4,0.8,8.2-0.9c13.3-8,27.9-11.9,43.5-12.2c12.2-0.3,24.3,0.5,36.1,3.4c2.4,0.6,4.2-0.4,6.2-0.9
	c38-10.4,75.3-11.2,111.3,7.4c14.4,7.4,26.4,17.9,36.2,30.7c6.5,8.4,7.7,18.7,7.9,28.8c0.5,24-4.6,47.1-11.4,69.9
	c-11,36.9-26.9,71.5-47.7,103.9c-2.6,4-1.2,4.8,2.4,5.9c9.4,2.7,18.8,1.7,28.2,0.4c6.1-0.8,12.1-2,18.2-2.7
	c4.9-0.5,9.5,0.4,11.7,5.5c2,4.8,0.5,9.2-2.8,12.8c-10.6,11.9-24.2,19.2-39.6,22.5c-13.2,2.9-26.6,4.4-40,1.4
	c-3.2-0.7-3.3,1.3-3.6,3.2c-1.2,9.6-2.1,19.1-3.3,28.7c-2.1,16.6-4,33.3-7.3,49.7c-4.8,23.7-19.7,37.5-42.7,43.2
	c-10.7,2.6-21.4,4.6-32.4,1.6c-19.4-5.3-29.2-19.8-33.3-37.9c-5.1-22.8-4.3-46.3-4.5-69.6C209.6,320.4,209.7,315.9,209.7,310.2z
	 M342.4,115.9c-0.5-4.6-3-8.2-4.7-11.8c-9.2-19.2-22-35.6-38.7-48.9c-18.8-14.9-40.3-23.1-64-25c-18.5-1.5-36.5,0.6-52.7,10.9
	c-16.5,10.5-26.4,25.9-33.1,43.7c-5.3,14-8.5,28.4-9.4,44c10.3-5.1,20.3-9,31.1-10.4c18.9-2.5,35.3,4,40.7,24.6
	c0.8,3.2,1.4,6.5,2.1,9.7c5.6,28.9,4.9,57.1-8.7,84.1c-4.1,8.1-7.2,16.7-9.3,25.6c18.1,1.8,28,13,27.1,28.7
	c-1.7,33.3-1.8,66.6,3.5,99.6c2.5,15.8,12,27,25.3,29.6c6.6,1.3,13.2,0.7,19.8-0.6c24.7-4.8,34.8-14.7,39.7-39.4
	c3-15.1,4.7-30.5,6.6-45.8c1.8-14.8,4.4-29.6,4.3-44.6c0-13,4.4-23.4,18.4-27.7c-2.3-2.9-4.5-5.4-6.3-8.2
	c-12.3-19.4-22.7-39.8-32.4-60.6c-5.7-12.2-9.8-24.9-11.2-38.5c-2.1-19.7,8.2-34.3,27.5-38.2C326,115.2,334.1,116.1,342.4,115.9z
	 M160.5,41.3c-0.2-0.2-0.5-0.5-0.7-0.6c-25.4-8.2-51.3-12.7-78-8.5c-22.4,3.6-39.5,15.2-48.6,36.7c-8.1,19.1-8.7,39.2-6.8,59.3
	c1.5,15.7,5,31.1,8.6,46.4c7.3,31,15.7,61.6,28.7,90.8c5.4,12,11.3,23.8,20.6,33.4c9.7,10.1,18.4,10,27.5-0.6
	c10.5-12.2,21-24.6,32-36.3c2-2.1,2.3-3.3,0-5.6c-14.8-14.6-21-32.4-19-53c1.3-12.9,2.4-25.8,2.1-38.8c-0.1-6.8-1.1-13.6-1-20.4
	C126.2,106.1,134.3,70.6,160.5,41.3z M280.3,28.3c2.1,1.1,3.4,1.8,4.7,2.5c33.9,17.9,56.6,45.4,70.2,81c2,5.1,2.6,10.4,2.3,16
	c-0.6,10.6-2.2,21.1-3.7,31.6c-2,14.7,1.1,29.2,2.4,43.7c1.4,15.3-0.7,29.7-7.7,43.5c-0.7,1.4-2.5,3-0.2,4.1c1.9,1,2.3-1.3,2.9-2.4
	c19.1-31.3,34.1-64.5,44.2-99.8c6.2-21.6,10.8-43.5,9.3-66.2c-0.4-6.7-1.6-13.3-6-18.7c-7.2-8.8-15.5-16.4-25.2-22.4
	c-23-14.3-48.3-17.7-74.7-15.8C292.9,25.8,286.9,26.2,280.3,28.3z M204.1,186.4c0.2-14.8-1.8-28.2-5.2-41.5
	c-2.3-8.9-8.1-13.3-17.1-14.1c-11.7-1.1-22.5,2.3-32.5,7.6c-13,6.9-10.7,3.4-10,17.7c0.7,13.5,0.6,27-1.3,40.3
	c-2.2,15.3-1.1,29.9,7.9,43c8,11.7,18.8,19,33.2,20.6c2.7,0.3,4.1-0.5,4.9-3.4c3.1-10.7,7.4-21,12-31.1
	C201.8,212.7,204.6,199.3,204.1,186.4z M339,237.6c6.9-16.1,5.2-31.6,3.3-47.2c-1.4-11.1-2.3-22.1-0.7-33.3c1.1-7.7,2-15.5,3.2-23.2
	c0.5-3.6-0.4-5.3-4.4-5.1c-5.1,0.2-10.3-0.2-15.5,0.1c-11.3,0.6-19.5,6.8-21.1,15.7c-0.9,5.3-0.6,10.6,0.4,15.8
	C310.1,188.4,326.1,211.8,339,237.6z M144.8,306.3c5.1,3.5,9.7,4.4,14.2,5c19.2,2.9,36-1.1,48.3-17.3c4.3-5.7,2.1-14.4-4.3-17.7
	c-3-1.5-5.7-1.6-8,1.1c-2.8,3.3-5.8,6.4-8.4,9.9c-5.1,7-11.8,11.5-20.2,13.6C159.6,302.6,152.7,304.3,144.8,306.3z M399.1,278.6
	c-6.2,0.6-12.5,1.4-18.7,1.9c-10,0.9-19.9,0.1-29.1-4.5c-4.4-2.2-10.3-1.4-13.2,2.4c-2.8,3.7-4.2,8.5-2.7,12.6
	c1.1,3.2,5.6,2.5,8.8,3c8.5,1.2,16.9,0.1,25.2-1.2C380.4,290.9,390.7,287.2,399.1,278.6z"/>
<path fill="#346690" d="M342.4,115.9c-8.3,0.2-16.5-0.6-24.5,1c-19.2,3.9-29.6,18.5-27.5,38.2c1.5,13.6,5.5,26.3,11.2,38.5
	c9.7,20.8,20.1,41.2,32.4,60.6c1.8,2.8,4,5.2,6.3,8.2c-14,4.3-18.4,14.7-18.4,27.7c0,15-2.6,29.8-4.3,44.6
	c-1.8,15.3-3.5,30.7-6.6,45.8c-4.9,24.7-15,34.6-39.7,39.4c-6.6,1.3-13.2,1.8-19.8,0.6c-13.3-2.6-22.7-13.9-25.3-29.6
	c-5.3-33-5.2-66.3-3.5-99.6c0.8-15.7-9.1-26.8-27.1-28.7c2.1-9,5.2-17.5,9.3-25.6c13.6-27,14.3-55.2,8.7-84.1
	c-0.6-3.2-1.2-6.5-2.1-9.7c-5.4-20.6-21.8-27.2-40.7-24.6c-10.8,1.5-20.8,5.3-31.1,10.4c0.9-15.6,4.1-30.1,9.4-44
	c6.7-17.8,16.6-33.2,33.1-43.7c16.2-10.3,34.2-12.4,52.7-10.9c23.7,1.9,45.3,10.1,64,25c16.7,13.3,29.5,29.7,38.7,48.9
	C339.4,107.7,342,111.3,342.4,115.9z"/>
<path fill="#346690" d="M160.5,41.3c-26.2,29.3-34.3,64.8-34.5,102.8c0,6.8,0.9,13.6,1,20.4c0.2,13-0.9,25.9-2.1,38.8
	c-2,20.6,4.2,38.4,19,53c2.3,2.3,1.9,3.5,0,5.6c-11.1,11.8-21.5,24.1-32,36.3c-9.1,10.6-17.7,10.6-27.5,0.6
	c-9.3-9.6-15.2-21.4-20.6-33.4c-13-29.2-21.4-59.8-28.7-90.8c-3.6-15.3-7.1-30.7-8.6-46.4c-1.9-20.1-1.3-40.2,6.8-59.3
	c9.1-21.5,26.1-33.2,48.6-36.7c26.6-4.3,52.6,0.3,78,8.5C160.1,40.8,160.3,41.1,160.5,41.3z"/>
<path fill="#346690" d="M280.3,28.3c6.6-2.1,12.6-2.5,18.5-3c26.4-1.9,51.7,1.6,74.7,15.8c9.7,6,18,13.6,25.2,22.4
	c4.4,5.4,5.6,11.9,6,18.7c1.4,22.7-3.2,44.6-9.3,66.2c-10,35.3-25.1,68.5-44.2,99.8c-0.7,1.1-1,3.4-2.9,2.4
	c-2.3-1.1-0.5-2.7,0.2-4.1c6.9-13.7,9-28.2,7.7-43.5c-1.3-14.5-4.4-28.9-2.4-43.7c1.4-10.5,3.1-21,3.7-31.6c0.3-5.7-0.3-10.9-2.3-16
	c-13.5-35.5-36.2-63.1-70.2-81C283.8,30.2,282.5,29.4,280.3,28.3z"/>
<path fill="#346690" d="M204.1,186.4c0.5,12.9-2.3,26.3-8.1,39c-4.6,10.1-8.9,20.4-12,31.1c-0.8,2.9-2.2,3.7-4.9,3.4
	c-14.3-1.6-25.1-8.9-33.2-20.6c-9-13.1-10.1-27.7-7.9-43c1.9-13.4,2-26.8,1.3-40.3c-0.7-14.3-3-10.8,10-17.7
	c10-5.3,20.8-8.7,32.5-7.6c9,0.8,14.8,5.3,17.1,14.1C202.3,158.2,204.2,171.6,204.1,186.4z M179.9,136.9c-7.5,0-10.7,3.2-8.4,8.3
	c3.5,7.5,13.7,9.7,19.7,4.2c4.2-3.8,3.7-7.8-1.3-10.2C186.8,137.8,183.4,137,179.9,136.9z"/>
<path fill="#346690" d="M339,237.6c-12.9-25.9-28.9-49.2-34.7-77.2c-1.1-5.2-1.4-10.5-0.4-15.8c1.5-8.8,9.7-15.1,21.1-15.7
	c5.1-0.3,10.3,0.1,15.5-0.1c3.9-0.2,4.9,1.6,4.4,5.1c-1.1,7.7-2,15.5-3.2,23.2c-1.6,11.1-0.6,22.2,0.7,33.3
	C344.2,206,345.9,221.5,339,237.6z M321.8,147.4c4.6-0.2,8.5-2.3,11-6.7c1.5-2.7,0.9-4.7-2.1-5.9c-4.1-1.5-8.2-1-12.2,0.2
	c-2.8,0.9-6.3,1.9-6.3,5.4c0,3.5,3.4,5,6.3,6.4C319.2,147.2,320.3,147.1,321.8,147.4z"/>
<path fill="#346690" d="M144.8,306.3c7.9-2,14.8-3.7,21.6-5.4c8.4-2.1,15-6.6,20.2-13.6c2.5-3.5,5.6-6.6,8.4-9.9
	c2.3-2.7,5.1-2.6,8-1.1c6.5,3.3,8.6,12,4.3,17.7c-12.3,16.2-29.1,20.2-48.3,17.3C154.5,310.7,149.9,309.8,144.8,306.3z"/>
<path fill="#346690" d="M399.1,278.6c-8.3,8.6-18.6,12.3-29.6,14.2c-8.3,1.4-16.7,2.4-25.2,1.2c-3.2-0.5-7.7,0.2-8.8-3
	c-1.5-4.2-0.1-8.9,2.7-12.6c3-3.9,8.8-4.7,13.2-2.4c9.2,4.7,19,5.4,29.1,4.5C386.6,279.9,392.8,279.2,399.1,278.6z"/>
<path fill="#FDFDFD" d="M179.9,136.9c3.5,0.1,6.9,0.8,10.1,2.3c5,2.4,5.4,6.5,1.3,10.2c-6.1,5.5-16.3,3.3-19.7-4.2
	C169.2,140.2,172.4,137,179.9,136.9z"/>
<path fill="#FDFDFD" d="M321.8,147.4c-1.4-0.2-2.5-0.2-3.4-0.6c-2.9-1.4-6.2-2.9-6.3-6.4c0-3.5,3.5-4.5,6.3-5.4
	c4-1.2,8.1-1.7,12.2-0.2c3.1,1.1,3.7,3.1,2.1,5.9C330.2,145.1,326.4,147.2,321.8,147.4z"/>
</svg>
