<?xml version="1.0" encoding="utf-8"?>
<!-- Generator: Adobe Illustrator 25.4.1, SVG Export Plug-In . SVG Version: 6.00 Build 0)  -->
<svg version="1.1" baseProfile="tiny" id="Capa_1" xmlns="http://www.w3.org/2000/svg" xmlns:xlink="http://www.w3.org/1999/xlink"
	 x="0px" y="0px" viewBox="0 0 473.9 356.4" overflow="visible" xml:space="preserve">
<path fill="#CB6999" stroke="#FFFFFF" stroke-width="2" stroke-miterlimit="10" d="M472.3,244.2c0.5,2,1.3,20.1-0.7,24.2
	c-3.6,7.5-8.9,13.2-16.5,16.6c-2.3,1-5.5,3.3-7.1,0.2c-1.6-3,2.4-3.8,4.2-5c12.1-8.6,15.1-20.5,8.3-33.7c-3.6-7-8.9-12.5-15.8-16.2
	c-22.6-11.9-46.2-12.2-70.3-5.2c-3.7,1.1-3.3,3.2-2.3,6.1c3.6,10.8,3.7,21.3-3.8,30.8c-8.9,11.4-20.8,18.1-34.5,21.5
	c-9.4,2.3-16.2-4.1-14.9-13.8c0.4-3.1,1.1-6.2,2.2-9.2c4.3-12.3,12.3-22,21.9-30.5c3-2.6,3.3-4.6,1.4-8c-5.1-8.6-7.3-18.1-9.7-27.7
	c-0.3-1.2,0.1-2.7-1.8-3.5c-6.6,12.1-12.7,24.6-20.8,35.7c-5.1,6.9-6.4,12.8-3.4,21.2c4.7,12.7,2.5,25.2-7.4,35.1
	c-11.1,11.1-25.2,15.9-40.7,16.3c-4,0.1-8.7-0.2-10.6-4.9c-1.9-4.6,0.6-8.4,3.4-11.8c9.4-11.6,18.9-23.3,28.3-34.9
	c1.3-1.6,2.9-3.3,1.6-5.8c-6.1-11.6-10.7-23.8-13-36.9c-2,0.8-2,2.3-2.4,3.4c-11.3,28-24.4,55.1-39.5,81.2
	c-3.1,5.4-6.8,10.3-11.9,13.9c-6.4,4.6-13.5,2.7-17.1-4.3c-2.6-5.1-2.8-10.5-2.8-16.1c0-3.8,0-7.5,0-12.7c-1,2.3-1.4,3.2-1.8,4.1
	c-4.6,10.7-8.9,21.6-15.9,31c-7,9.6-20.4,9.6-27.1-0.1c-8.9-12.9-12.2-27.5-11.3-43.1c0.6-9.9,2.5-19.6,5.6-30.5
	c-9,5.2-16.9,9.6-24.8,14.2c-2,1.2-0.5,2.6,0,3.9c16,42.8-8.3,90.7-52.3,103.1c-1.8,0.5-4.2,0.2-5.1,2.6c-8.7,0-17.3,0-26,0
	c0-1.2-0.7-1.7-1.8-1.9c-7.9-1.3-12.4-6.7-15.8-13.3c-7.7-15.2-4.2-36.6,8.3-50.7c16.2-18.3,36.8-30.5,58-41.8c7.5-4,7.5-3.9,0.6-9
	c-17.3-12.9-36-24.1-52.4-38.3c-13.7-11.9-26-24.9-31.8-42.7c-0.4-1.2-0.7-1.3-1.1-2.9c-1.8-6-0.4-16.7,0.7-21.9
	c0.4-1.9,0,0,0.3-1.2c3.4-12,9.4-22.7,16.8-32.6c17.4-23.3,39.8-40.8,64.7-55.4C116.7,25,150.6,9.6,188,3.2c1.6-0.3,2.9-0.6,3.6-2.2
	c15,0,30,0,45,0c0.9,2.1,2.8,1.8,4.6,2.2c16.2,3.2,31.6,8.3,43.8,20.2c10.9,10.6,15,24,13.9,38.6c-3,37.3-24.5,63.2-55.1,81.3
	c-29.6,17.6-62.4,23.9-96.9,19.4c-12.6-1.6-23.4-7.4-31.9-17.1c-2.6-3-4.3-6.3-5.1-10.1c-0.3-1.3-0.2-2.7,1.3-3.4
	c1.2-0.5,2.4-0.2,3.2,0.7c17.9,18.6,40.1,17.1,62.5,12.9c31-5.7,57.9-19.5,79-43.5c8.3-9.5,14.7-20.1,17-32.8
	c3-16.5-3.5-28.2-19.3-34.3c-8.5-3.3-17.3-4.8-26.3-5.2c-31.2-1.4-60.4,6.6-88.4,19.4c-26.8,12.3-52.5,26.7-74.4,47
	c-11.3,10.7-21.2,22.3-25.8,37.5c-5.5,18-1.5,33.7,10.8,47.7c11.7,13.4,26.4,23.1,40,34.3c6.3,5.2,12.8,10.2,18.4,16.1
	c1.9,2,3.5,2.4,6,1c13.8-7.7,27.7-15.2,41.6-22.8c1.8-1,3-2.6,4.3-4.1c7.6-9.2,16.3-17.1,27.2-22.3c3.2-1.5,6.5-2.5,10-3
	c9.6-1.2,15.8,3.3,17.6,12.7c1,5.3,0.8,10.5-0.1,16.5c3.2-1.2,5.9-2.5,8.9-1.7c5.9,1.7,7.7,4.6,6.1,10.8c-3.5,14-7.1,28-10.5,42.1
	c-1.2,5.1-2.1,10.3-0.9,15.9c2.7-1.5,3.6-3.7,4.6-5.7c14.5-29.4,27.6-59.5,40.5-89.6c1.5-3.5,2.5-7.3,3.2-11
	c0.7-3.9,2.9-5.8,6.4-6.6c5.4-1.3,10.9-1.7,16.4-1.1c6.7,0.7,8.2,3.2,6.1,9.6c-6.8,20.3-6,33.8,2.9,48.9c1.1,0.3,1.4-0.6,1.8-1.3
	c8.5-14.1,16.7-28.4,23.8-43.3c3.1-6.5,4.3-13.6,6.5-20.4c0.6-1.7,0.9-3.5,2.5-4.7c4.4-3.2,20.6-4,25.2-1.3c2.2,1.3,2.9,2.9,2,5.4
	c-1.4,4.3-2.7,8.6-3.9,12.9c-4.3,15.9,0.5,30.2,8.2,43.9c1.5,2.7,3,1,4.5,0.4c20.4-8.6,41.4-11.2,62.9-5.2
	C451.1,213.3,465.7,224.3,472.3,244.2 M107.1,271.5c0-4.5-0.4-8.9-1.2-13.4c-0.6-3.5-1.8-3.6-4.6-1.9c-13.9,8.3-27.4,17-39.2,28.1
	c-10,9.3-17.3,20.3-16.5,34.8c0.3,6.1,3.7,9.4,9.7,9.8c4,0.3,7.9-0.4,11.8-1.6C87.3,320.9,107.8,297.6,107.1,271.5z M202.5,204.8
	c0.4-5.1-1.6-6.6-6-5.1c-4.7,1.6-8.5,4.6-11.6,8.4c-15.2,18.9-22.5,40.4-20.2,64.8c0.3,3,1,5.9,2.6,8.5c1.6,2.7,3.3,3,5.5,0.7
	c2-2.2,3.6-4.8,4.9-7.5c7.1-14.9,12.7-30.3,18.1-45.8C198.6,220.8,201,212.7,202.5,204.8z M353.4,236.1
	c-9.8,7.8-15.1,17.9-18.3,29.3c-0.7,2.4-0.3,4,2.9,2.8C350.8,263.6,357.6,249.9,353.4,236.1z M290.5,257
	c-7.4,10-15.1,18.6-23.6,27.5C279.9,281.7,290.6,269.2,290.5,257z"/>
</svg>
