<svg version="1.1" baseProfile="tiny" id="Capa_1" xmlns="http://www.w3.org/2000/svg" xmlns:xlink="http://www.w3.org/1999/xlink"
	 x="0px" y="0px" viewBox="0 0 804.9 602.2" overflow="visible" xml:space="preserve" fill="#fff">
<path d="M763.5,476.4c12.7-7.2,21.8-17.2,24.2-32c1.8-11.4-1.8-21.9-7.7-31.6c-10-16.3-25-26-42.6-32.1c-19.6-6.8-39.8-8.7-60.4-8
	c-15,0.5-29.5,3.2-43.6,8.3c-4.7,1.7-4.7,1.7-3.1,6.2c2.9,8.2,4.9,16.6,5.2,25.4c0.4,13.7-5.1,25-14,34.9
	c-11.5,12.7-25.4,22-41.7,27.7c-5.1,1.8-10,4-15.4,4.8c-14,1.9-23.4-6.1-23.4-20.2c0-12.3,4.1-23.5,10.1-34
	c8.8-15.5,20.5-28.7,34.1-40.1c2.2-1.8,2.6-3.2,1.2-5.7c-10.2-18.3-16.2-38.1-20-58.6c-0.1-0.6-0.3-1.1-0.7-2.2
	c-2.6,5-4.9,9.6-7.3,14.1c-11.9,22.6-24.9,44.6-39.5,65.6c-1,1.5-1.1,2.7-0.4,4.4c4.1,9.9,7.3,20,8.1,30.8
	c1.5,21-5.8,38.3-22.7,50.9c-18.6,14-39.7,21.5-63.2,21.5c-3.5,0-7-0.4-10.3-1.7c-6.2-2.5-9-7.9-7.8-14.4c0.7-3.6,2.4-6.7,4.6-9.6
	c10.7-14.4,22.7-27.8,34.2-41.6c6.7-8,12.8-16.3,19-24.6c1.1-1.4,1-2.6,0.3-4.1c-4-8.2-8.2-16.4-11.8-24.8
	c-5.6-13-8.4-26.8-11.3-40.5c-0.1-0.3-0.1-0.6-0.2-0.9c-1.3,0.2-1.2,1.4-1.5,2.2c-19.3,48.9-42.2,96-68.2,141.7
	c-5.2,9.2-11.4,17.6-19.6,24.3c-6.6,5.3-13.8,7.6-21.9,3.7c-5.7-2.7-8.7-7.8-10.6-13.5c-3.4-10.1-3.9-20.5-3.3-31
	c0.3-5.4,0.9-10.9,1-16.4c-2.2,5.3-4.4,10.6-6.7,15.9c-6,13.7-12.2,27.3-19.9,40.2c-1.3,2.1-2.8,4.2-4.3,6.1
	c-8,10.4-18.2,13.9-32.8,10.3c-5.8-1.5-9.8-5.5-13.3-10.2c-9.1-12.3-13.8-26.4-17.1-41.1c-4.3-19-2.3-37.9,0.9-56.7
	c1.6-9.1,3.9-18.1,7.2-27.6c-1.6,0.8-2.5,1.2-3.4,1.7c-13.4,7.3-26.6,15-39.7,22.8c-1.2,0.7-2.4,1.2-1.4,3.1
	c8.3,17.5,10.3,36.1,9.4,55.2c-1,22.4-6.7,43.5-18.2,62.9c-9.1,15.4-20.9,28.3-35.3,39c-17.8,13.3-37.6,21.8-59.7,24.7
	c-14.6,1.9-29,0.9-43.3-2.9c-5-1.3-8.9-4.3-12.8-7.5c-0.1-0.1-0.3-0.3-0.4-0.4c0-0.2-0.1-0.4-0.4-0.4c-1.1-1.2-2.2-2.5-3.3-3.7
	c-6.4-8.7-10.7-18.2-12-28.9c-2.9-23.1,3.1-43.9,16.8-62.5c10.4-14.1,23.7-25.3,37.6-35.8c21.5-16.1,44.7-29.6,68.6-41.8
	c1.6-0.8,3.2-1.6,4.8-2.5c3.3-1.8,3.3-1.8,0.5-4.2c-5.4-4.5-11-8.6-16.6-12.7c-21-15-42.8-29-63.2-44.8c-6.9-5.4-14-10.6-20.5-16.5
	c-19.7-18-37.7-37.4-48.5-62.5c-9-20.9-7.2-41.3,0.6-61.9c9.9-26.1,25.9-48.2,44.7-68.5c11.9-12.8,24.9-24.4,38.5-35.5
	c3.9-3.2,7.9-6.6,12-9.5c4.8-3.4,9.7-6.8,14.6-10c10.9-7.2,22.2-13.9,33.3-20.8c5.9-3.6,12-7,18.1-10.1
	c35.1-17.8,70.9-33.9,108.7-44.9C307.9,3.7,340-0.8,372.8,0.1c25.6,0.8,50.6,4.8,74.4,14.8c15.5,6.6,29.5,15.4,40.6,28.3
	c9.6,11.2,15.5,24.2,17.7,38.9c4.9,31.7-3.5,60.6-19.7,87.4c-27.2,45.3-66.6,75.6-116.7,92c-29.5,9.7-59.6,15.4-90.7,15.4
	c-7.8,0-15.5-0.5-23.3-1.4c-10.7-1.2-21-3.8-30.9-8c-12.1-5.2-22.3-12.9-30.9-22.7c-3.8-4.4-6.6-9.7-7.8-15.6
	c-0.3-1.3-0.5-2.6-0.3-3.9c0.6-3.6,3.8-4.9,6.6-2.6c2.2,1.8,4.3,3.8,6.2,5.9c4.9,5.3,11,8.6,17.4,11.6c23.9,11.4,48.7,10.9,74,7
	c10.4-1.6,20.6-3.8,30.7-6.6c18-5,35.4-11.7,51.8-20.7c7.6-4.1,14.9-8.6,22-13.6c14.7-10.3,28.4-21.6,39.8-35.4
	c8.7-10.6,16.6-21.8,22-34.5c5.3-12.4,8.6-25.2,7.3-38.8c-1.5-15.7-9.3-27-22.8-34.7c-12.7-7.2-26.5-10.9-40.8-12.8
	c-34.8-4.6-68.8,0.2-102.4,9.2c-32.3,8.6-62.8,21.9-92.4,37.5c-24.8,13.1-48.9,27.4-71.4,44.3c-19.8,14.9-38,31.3-52.4,51.7
	c-11.9,16.9-19.7,35.3-20.6,56.2c-0.7,15.3,3.4,29.4,11.4,42.4c8.8,14.4,20.6,26.1,33.3,37c17.2,14.8,35.7,27.9,53.3,42.2
	c9.4,7.6,18.5,15.5,26.7,24.4c1.1,1.2,1.8,1.8,3.6,0.7c8.6-4.9,17.4-9.5,26.1-14.2c10.4-5.6,20.7-11.3,31-17
	c6.4-3.5,12.7-7,19.1-10.4c1.5-0.8,2.6-1.8,3.5-3.2c3.5-5.4,7.8-10.3,12.3-14.8c7.5-7.4,15.7-14,24.6-19.8
	c9-5.8,18.5-10.3,29.3-11.4c16.2-1.7,26.6,6.6,29.1,22.7c1.3,8.5,1,16.9-0.3,25.3c-0.1,0.8-0.2,1.6-0.3,2.3c1.2,0.3,1.8-0.5,2.5-1
	c6.4-4.8,17-3.5,22.2,2.6c2.7,3.1,2.8,6.7,1.9,10.4c-3.7,14.3-7.6,28.5-11.3,42.8c-3.4,13.3-6.9,26.6-8.9,40.3
	c-0.8,5.5-1.2,11.1-0.3,16.7c0.1,0.9-0.1,2.3,1,2.5c1,0.2,1.6-1,2.1-1.8c3.5-5.1,6.1-10.8,8.9-16.3c12.9-25.7,24.2-52.1,35.9-78.3
	c8.9-19.9,17.6-40,26.5-59.9c3.9-8.7,6.2-17.9,8.3-27.1c1-4.6,3.5-7.1,7.9-8.3c11-3,22.1-4,33.5-2.3c1.8,0.3,3.5,0.9,5.1,1.8
	c4.3,2.4,5.2,4.7,3.7,9.3c-3.2,9.4-6.4,18.9-8.2,28.7c-2.3,12.5-0.7,24.9,1.9,37.1c1.8,8.4,6.2,15.9,10.4,24
	c3.3-5.5,6.3-10.4,9.2-15.4c12.2-21,24.2-42.2,34.6-64.3c3.9-8.2,5.8-16.9,8-25.6c0.9-3.4,2.2-6.6,3-10c1-4.3,3.9-6.2,7.8-7.4
	c9.6-2.9,19.4-3.4,29.3-2.9c3.8,0.2,7.2,1.1,10.3,3.2c3.1,2.2,3.7,4.3,2.6,7.9c-3.4,10.9-7.9,21.4-8.8,32.9c-1.4,15.9,0,31.4,7,46.1
	c2.9,6.1,6.2,12,9,18.1c1.2,2.7,2.7,2.9,5.1,1.8c4.8-2.2,9.8-4.1,14.8-5.9c5.5-2,11.1-3.5,16.8-4.9c12.8-3.1,25.9-4.4,39-4.4
	c11.6,0,23.2,1.2,34.5,4c22.7,5.6,42.7,16,58,34.1c2.2,2.6,4.2,5.3,6.2,8c0.6,1,1.2,1.9,1.8,2.9c0.6,1.5,1.3,3,2.4,4.2
	c0.6,1.4,1.3,2.7,1.9,4.1c0.1,0.3,0.3,0.5,0.4,0.8c0,0.2,0,0.3,0.1,0.4c0.1,0.9,0.4,1.7,1,2.4c0.1,0.2,0.1,0.4,0.2,0.6
	c0,0.5,0,0.9,0.5,1.2c0.5,1.6,1,3.2,1.5,4.8c0.1,0.2,0.2,0.4,0.3,0.7c0.3,1.2,0.5,2.3,0.8,3.5c0.1,0.3,0.2,0.6,0.4,0.9
	c0,0.3,0.1,0.6,0.1,0.9c0.1,0.6,0.2,1.2,0.3,1.8c1.3,7.8,1.3,15.7-0.2,23.5c-1.5,8-4.8,15.3-10.6,21.3c-0.7,0.7-1.5,1.3-1.5,2.5
	c-1.5,0.2-2.1,1.4-3,2.4c-6.2,6-13.3,10.4-21.5,12.8c-1.6,0.5-3.3,0.6-5,0.4c-1.3-0.1-2.4-0.6-2.7-1.9c-0.3-1.3-0.5-2.7,1-3.7
	C761.6,478.2,762.5,477.3,763.5,476.4z M181,457.1c-0.2-7.7-1.3-16.5-3.5-25.3c-0.4-1.6-0.8-2.2-2.5-1.2
	c-23.4,13.8-46.2,28.4-66.8,46.3C96,487.4,86,499.6,80,514.7c-3.4,8.5-5.4,17.3-4.3,26.6c1.1,9.1,6,14.2,15,15.6
	c7.1,1.1,13.9-0.2,20.6-2.3C151,542.2,181.2,500.5,181,457.1z M277.6,443.5c-0.3,5.5,0,10.8,0.6,16.1c0.7,6,1.6,11.9,4.7,17.2
	c2.5,4.3,5.4,4.7,8.9,1.3c3.2-3.1,5.4-6.9,7.4-10.8c6.7-12.7,11.8-26.2,17-39.5c9.2-23.3,18.2-46.6,24.3-70.9
	c1.3-5,2.5-10.1,2.4-15.3c0-2.7-1.4-4.3-3.9-4.9c-1.6-0.4-3.2-0.1-4.7,0.2c-6,1.5-10.9,4.9-15.5,8.8c-8.8,7.4-14.6,17.1-20.3,26.8
	C285.6,394.5,278.2,418.1,277.6,443.5z M601.5,412.7c0.2-3.8-0.6-7.8-1.6-11.7c-0.5-2.2-1.2-2.3-2.8-0.8
	c-13.7,12.5-23,27.8-28.5,45.5c-0.7,2.3-1.3,4.6-0.9,7.1c0.2,1.7,0.9,2.4,2.8,1.7C588.9,447.5,601.1,434.1,601.5,412.7z
	 M492.9,434.9c-1.5,0.4-1.9,1.5-2.6,2.3c-5.8,7.4-11.5,14.8-17.7,21.8c-5.9,6.6-11.9,13.1-17.9,19.7c-0.6,0.7-1.8,1.5-1.2,2.5
	c0.7,1.2,2,0.6,3,0.3c2.9-0.7,5.5-2.3,8-4c10.8-7.3,20.4-15.8,25.6-28.1C492.1,444.9,493.1,440.1,492.9,434.9z"/>
</svg>
