<?xml version="1.0" encoding="utf-8"?>
<!-- Generator: Adobe Illustrator 25.4.1, SVG Export Plug-In . SVG Version: 6.00 Build 0)  -->
<svg version="1.1" baseProfile="tiny" id="Capa_1" xmlns="http://www.w3.org/2000/svg" xmlns:xlink="http://www.w3.org/1999/xlink"
	 x="0px" y="0px" viewBox="0 0 382.3 382.3" overflow="visible" xml:space="preserve">
<path fill="#3178C5" d="M348.8,382.3c-105.1,0-210.3,0-315.4,0c-0.3-0.1-0.6-0.2-0.9-0.3c-15.2-2.4-25.3-10.9-30.7-25.2
	c-1-2.6-1.3-5.3-1.9-7.9C0,243.7,0,138.6,0,33.5c0.2-1,0.4-1.9,0.6-2.9C3.6,13.2,19.3,0,37.4,0c102.5,0.1,205,0,307.5,0
	c2.3,0,4.6,0.2,6.9,0.6c17.3,3.1,30.4,18.7,30.4,36.2c0,102.8,0,205.7,0,308.5c0,1.4,0,2.8-0.3,4.3c-2.4,15.3-10.9,25.5-25.3,30.8
	C354.1,381.4,351.4,381.7,348.8,382.3z M236.8,304.4c-0.1,0.6-0.1,0.8-0.1,1c0,11.7,0,23.5,0,35.2c0,0.9,0.4,1.3,1.1,1.6
	c5.5,2.6,11.3,4.5,17.3,5.8c14.8,3.2,29.8,3.8,44.8,2.1c8.1-0.9,16-2.6,23.5-5.9c13-5.8,22.2-15.1,25.9-29.1
	c1.2-4.4,1.6-8.9,1.6-13.4c0.1-7.3-1-14.4-4.2-21c-4.5-9.4-11.9-15.9-20.5-21.2c-8.2-5-17-8.6-25.8-12.4c-6.1-2.7-12.2-5.5-17.5-9.7
	c-1.1-0.9-2.2-1.9-3.2-2.9c-6.5-7.1-5.4-16.4,2.7-21.7c4.4-2.9,9.5-4.3,14.7-4.8c16.1-1.4,31.2,1.9,45.1,10.4
	c0.3,0.2,0.6,0.6,1.3,0.5c0-0.5,0-1.1,0-1.7c0-10.4,0-20.7,0-31.1c0-1.4-0.5-2-1.8-2.5c-9.9-3.5-20.1-5-30.6-5.5
	c-13.4-0.7-26.6,0-39.5,4c-9.4,2.9-17.8,7.5-24.5,14.8c-8.6,9.3-11.6,20.6-11.2,33c0.4,12.1,5,22.4,13.8,30.8
	c6.8,6.4,14.8,11,23.3,14.7c7.4,3.2,14.9,6.1,22,9.9c4.8,2.6,9.4,5.5,12.9,10c5.4,7,3.9,16.1-3.4,21c-3.6,2.5-7.7,3.8-12,4.4
	c-16.8,2.4-32.4-1.1-46.9-9.7C242.7,308.9,239.8,306.8,236.8,304.4z M173.8,280.5c0-22.1,0-44.2,0-66.3c0-2.5-0.2-2.1,2.1-2.1
	c14.8,0,29.5,0,44.3,0c0.8,0,1.6,0.2,1.6-1.1c0-9.5,0-19,0-28.5c0-0.9-0.3-1.1-1.1-1.1c-1.5,0-3.1,0-4.6,0c-42,0-84.1,0-126.1,0
	c-1.3,0-1.8,0.2-1.8,1.7c0.1,9.1,0.1,18.3,0,27.4c0,1.4,0.4,1.7,1.7,1.6c14.6,0,29.2,0,43.8,0c2.5,0,2.2-0.4,2.2,2.2
	c0,44.1,0,88.2,0,132.4c0,2,0,2,2.1,2c11.4,0,22.7,0,34.1,0c1.6,0,1.9-0.5,1.9-2C173.8,324.7,173.8,302.6,173.8,280.5z"/>
<path fill="#FEFEFE" d="M236.8,304.4c3,2.4,5.9,4.6,9,6.4c14.5,8.6,30.1,12.1,46.9,9.7c4.3-0.6,8.4-1.9,12-4.4
	c7.3-4.9,8.8-14,3.4-21c-3.4-4.4-8-7.4-12.9-10c-7.1-3.8-14.6-6.7-22-9.9c-8.5-3.7-16.5-8.2-23.3-14.7c-8.8-8.4-13.4-18.7-13.8-30.8
	c-0.5-12.4,2.6-23.7,11.2-33c6.7-7.3,15.1-11.9,24.5-14.8c12.9-4,26.2-4.6,39.5-4c10.4,0.5,20.7,2,30.6,5.5c1.3,0.5,1.8,1,1.8,2.5
	c-0.1,10.4,0,20.7,0,31.1c0,0.6,0,1.1,0,1.7c-0.7,0.1-0.9-0.3-1.3-0.5c-13.9-8.5-28.9-11.8-45.1-10.4c-5.2,0.5-10.2,1.8-14.7,4.8
	c-8,5.3-9.2,14.6-2.7,21.7c1,1.1,2,2,3.2,2.9c5.3,4.2,11.3,7,17.5,9.7c8.7,3.8,17.6,7.4,25.8,12.4c8.6,5.3,16,11.8,20.5,21.2
	c3.2,6.7,4.2,13.7,4.2,21c0,4.5-0.4,9-1.6,13.4c-3.8,14-12.9,23.3-25.9,29.1c-7.5,3.4-15.4,5-23.5,5.9c-15,1.7-30,1.1-44.8-2.1
	c-6-1.3-11.8-3.1-17.3-5.8c-0.7-0.4-1.1-0.7-1.1-1.6c0-11.7,0-23.5,0-35.2C236.7,305.1,236.7,304.9,236.8,304.4z"/>
<path fill="#FDFDFE" d="M173.8,280.5c0,22.1,0,44.2,0,66.3c0,1.5-0.3,2-1.9,2c-11.4-0.1-22.7,0-34.1,0c-2.1,0-2.1,0-2.1-2
	c0-44.1,0-88.2,0-132.4c0-2.5,0.3-2.2-2.2-2.2c-14.6,0-29.2,0-43.8,0c-1.3,0-1.7-0.3-1.7-1.6c0.1-9.1,0.1-18.3,0-27.4
	c0-1.5,0.5-1.7,1.8-1.7c42,0,84.1,0,126.1,0c1.5,0,3.1,0,4.6,0c0.8,0,1.1,0.2,1.1,1.1c0,9.5,0,19,0,28.5c0,1.3-0.8,1.1-1.6,1.1
	c-14.8,0-29.5,0-44.3,0c-2.3,0-2.1-0.3-2.1,2.1C173.8,236.4,173.8,258.5,173.8,280.5z"/>
</svg>
