<?xml version="1.0" encoding="utf-8"?>
<!-- Generator: Adobe Illustrator 25.4.1, SVG Export Plug-In . SVG Version: 6.00 Build 0)  -->
<svg version="1.1" baseProfile="tiny" id="Capa_1" xmlns="http://www.w3.org/2000/svg" xmlns:xlink="http://www.w3.org/1999/xlink"
	 x="0px" y="0px" viewBox="0 0 392.3 340" overflow="visible" xml:space="preserve">
<path fill="#4DB987" d="M313.4,0.2c26,0,51.9,0,79,0C326.9,113.5,261.8,226.4,196.2,340C130.6,226.4,65.5,113.7,0,0.3
	c26.7,0,52.6,0,78.5,0c14.7,25.5,29.4,51,44.2,76.5c23.7,41.1,47.4,82.1,71.1,123.2c1.8,3.2,2.7,3.6,4.7,0.1
	c13.1-23,26.5-45.8,39.7-68.7c18.5-32,36.9-64,55.3-96C300.2,23.7,307.5,12.4,313.4,0.2z"/>
<path fill="#435466" d="M313.4,0.2c-5.9,12.1-13.2,23.5-19.9,35.1c-18.4,32-36.8,64-55.3,96c-13.2,22.9-26.6,45.7-39.7,68.7
	c-2,3.5-2.9,3.1-4.7-0.1c-23.6-41.1-47.4-82.1-71.1-123.2C108,51.3,93.3,25.8,78.5,0.3c23.3-0.1,46.6-0.1,69.9-0.3
	c2.9,0,3.6,1.8,4.7,3.6c13.5,23.3,26.9,46.6,40.3,69.9c0.8,1.4,1.7,2.7,2.7,4.5c1.2-1.9,2.2-3.4,3.1-4.9
	c13.4-23.1,26.7-46.3,40.1-69.4c1.1-1.9,1.9-3.6,4.7-3.6C267.1,0.2,290.2,0.2,313.4,0.2z"/>
</svg>
